<svg width="51" height="76" viewBox="0 0 51 76" fill="none" xmlns="http://www.w3.org/2000/svg">
<path d="M50.5433 27.3186C50.2059 32.5776 48.2066 37.5957 44.8313 41.6556C41.456 45.7154 36.8775 48.6091 31.7503 49.9229C31.4227 50.009 31.133 50.2009 30.9268 50.4685C30.7206 50.7362 30.6095 51.0644 30.611 51.4018V56.0376C30.6108 56.2376 30.6502 56.4357 30.7268 56.6204C30.8036 56.8052 30.916 56.9732 31.058 57.1147C31.2 57.2562 31.3685 57.3685 31.5541 57.4451C31.7397 57.5218 31.9385 57.5612 32.1394 57.5614H36.5027C36.9083 57.5611 37.2974 57.7213 37.5844 58.0065C37.8715 58.2918 38.0331 58.6789 38.0335 59.0826V66.2684C38.0331 66.6721 37.8715 67.0591 37.5844 67.3444C37.2974 67.6296 36.9083 67.7898 36.5027 67.7896H32.14C31.9392 67.7895 31.7403 67.8288 31.5547 67.9052C31.3691 67.9816 31.2005 68.0937 31.0585 68.2351C30.9165 68.3764 30.8039 68.5442 30.7271 68.729C30.6503 68.9137 30.6108 69.1116 30.611 69.3116V73.6562C30.6102 74.0596 30.4489 74.4462 30.1623 74.7314C29.8757 75.0165 29.4873 75.177 29.082 75.1776H21.8638C21.663 75.1777 21.4641 75.1385 21.2784 75.0622C21.0928 74.9858 20.9241 74.8738 20.7819 74.7325C20.6397 74.5913 20.5269 74.4235 20.4499 74.2388C20.3729 74.0542 20.3332 73.8562 20.3331 73.6562V69.3116C20.3331 69.1117 20.2936 68.9139 20.2169 68.7292C20.1401 68.5446 20.0276 68.3768 19.8856 68.2354C19.7437 68.0942 19.5752 67.982 19.3897 67.9055C19.2042 67.829 19.0054 67.7896 18.8047 67.7896H14.4395C14.2387 67.7898 14.0398 67.7506 13.8541 67.6742C13.6685 67.5979 13.4998 67.4858 13.3576 67.3446C13.2154 67.2033 13.1026 67.0356 13.0257 66.8509C12.9486 66.6663 12.9089 66.4683 12.9088 66.2684V59.0826C12.9089 58.8827 12.9486 58.6847 13.0257 58.5001C13.1026 58.3154 13.2154 58.1477 13.3576 58.0064C13.4998 57.8652 13.6685 57.7531 13.8541 57.6768C14.0398 57.6003 14.2387 57.5611 14.4395 57.5614H18.8047C19.0055 57.5611 19.2043 57.5216 19.3899 57.4449C19.5754 57.3683 19.744 57.256 19.8859 57.1145C20.0278 56.9731 20.1403 56.8051 20.2171 56.6203C20.2938 56.4356 20.3332 56.2375 20.3331 56.0376V51.3958C20.3342 51.1089 20.2535 50.8276 20.1002 50.5847C19.9469 50.3419 19.7274 50.1474 19.4673 50.024C19.3817 49.983 19.2924 49.9505 19.2004 49.9272C6.51255 46.6801 -2.30033 33.817 1.07375 19.6064C3.23324 10.5138 10.4715 3.41215 19.6278 1.35777C24.582 0.24738 29.3665 0.595327 33.6326 2.05125C36.732 3.11183 39.5929 4.76602 42.0539 6.92062C42.2103 7.05836 42.3368 7.2265 42.4253 7.4147C42.514 7.60301 42.5629 7.80724 42.569 8.01509C42.5752 8.22284 42.5384 8.42965 42.4612 8.62282C42.3838 8.81588 42.2675 8.99116 42.1195 9.13779L36.4163 14.8162C36.1515 15.0832 35.7964 15.2427 35.4201 15.2637C35.0437 15.2848 34.673 15.1658 34.3797 14.93C33.7909 14.4475 33.1636 14.0134 32.5042 13.632C30.3941 12.4113 27.9985 11.7643 25.5578 11.7562C25.5304 11.7562 25.5006 11.7562 25.4733 11.7562C16.354 11.7562 9.2671 20.4252 12.0741 29.9309C13.0187 33.1216 15.1159 35.8515 17.962 37.5948C18.9875 38.2268 20.094 38.718 21.2517 39.0549C22.7367 39.4917 24.2809 39.6958 25.8289 39.66C28.8023 39.5898 31.6752 38.5753 34.0283 36.7645C34.0386 36.7561 34.0496 36.75 34.06 36.7415C35.195 35.8671 34.5536 34.0506 33.1158 34.0506H30.6074C30.2021 34.0505 29.8133 33.8901 29.5266 33.6049C29.24 33.3197 29.0787 32.9328 29.0784 32.5293V27.2278C29.0792 26.8247 29.2406 26.4383 29.5272 26.1534C29.8139 25.8686 30.2024 25.7086 30.6074 25.7084H49.0149C49.2234 25.708 49.4297 25.7501 49.6212 25.8321C49.8127 25.914 49.9853 26.0341 50.1285 26.185C50.2717 26.3357 50.3823 26.5141 50.4536 26.7091C50.525 26.9041 50.5554 27.1115 50.5433 27.3186Z" fill="#E72887"/>
</svg>
