<svg width="34" height="46" viewBox="0 0 34 46" fill="none" xmlns="http://www.w3.org/2000/svg">
<path d="M33.5433 2.31852C33.2059 7.57742 31.2066 12.5956 27.8313 16.6555C24.456 20.7153 19.8775 23.6089 14.7503 24.9227C14.4227 25.0089 14.133 25.2008 13.9268 25.4684C13.7206 25.7361 13.6096 26.0644 13.611 26.4017V31.0375C13.6108 31.2374 13.6502 31.4356 13.7269 31.6203C13.8035 31.8051 13.9161 31.9731 14.058 32.1146C14.2 32.2561 14.3686 32.3684 14.5541 32.445C14.7396 32.5216 14.9386 32.5611 15.1395 32.5613H19.5027C19.9083 32.561 20.2974 32.7212 20.5845 33.0064C20.8715 33.2917 21.033 33.6788 21.0335 34.0825V41.2683C21.033 41.672 20.8715 42.059 20.5845 42.3443C20.2974 42.6295 19.9083 42.7897 19.5027 42.7895H15.14C14.9392 42.7894 14.7404 42.8286 14.5548 42.905C14.3692 42.9815 14.2006 43.0936 14.0585 43.2349C13.9165 43.3763 13.804 43.5441 13.7271 43.7289C13.6504 43.9136 13.6109 44.1115 13.611 44.3115V45.7637C8.96789 40.638 5.46541 34.5935 3.33305 28.0264V26.3926C3.3343 26.1058 3.25352 25.8245 3.10025 25.5816C2.94698 25.3387 2.72742 25.1442 2.46737 25.0208C1.46292 21.071 0.956502 17.0121 0.959609 12.9378C0.959609 12.8198 0.959609 12.7042 0.959609 12.5862C1.98509 13.2182 3.09165 13.7094 4.24927 14.0463C5.73426 14.4831 7.27848 14.6872 8.82653 14.6514C11.7999 14.5812 14.6728 13.5667 17.0259 11.7559C17.0362 11.7474 17.0472 11.7414 17.0575 11.733C18.1925 10.8585 17.5512 9.04199 16.1134 9.04199H13.6074C13.202 9.04188 12.8134 8.8815 12.5266 8.5963C12.24 8.311 12.0787 7.92415 12.0784 7.52076V2.22773C12.0792 1.82454 12.2407 1.43821 12.5272 1.15332C12.8139 0.868534 13.2024 0.70846 13.6074 0.708254H32.0149C32.2234 0.707943 32.4297 0.750029 32.6212 0.831928C32.8128 0.91393 32.9854 1.03399 33.1285 1.18486C33.2716 1.33563 33.3823 1.51401 33.4536 1.70903C33.5249 1.90396 33.5555 2.11139 33.5433 2.31852Z" fill="#ED72A9"/>
</svg>
