<svg width="320" height="231" viewBox="0 0 320 231" fill="none" xmlns="http://www.w3.org/2000/svg">
<path d="M277.456 139.227C280.588 139.5 283.657 140.266 286.55 141.498C289.284 142.696 291.89 144.169 294.326 145.894C292.02 146.98 289.792 148.226 287.658 149.622C286.575 150.275 285.51 150.983 284.46 151.573C283.932 151.872 283.415 152.184 282.895 152.447C282.374 152.711 281.858 152.947 281.341 153.184C280.824 153.421 280.294 153.613 279.754 153.793C279.215 153.973 278.666 154.17 278.108 154.323C277.829 154.402 277.548 154.475 277.267 154.542C276.985 154.609 276.701 154.695 276.417 154.764C275.847 154.908 275.267 155.01 274.689 155.128C272.396 155.576 270.075 155.865 267.743 155.994C265.142 156.143 262.534 156.116 259.938 155.913C258.752 155.834 257.628 155.766 256.536 155.68C255.46 155.626 254.43 155.587 253.441 155.587C254.006 154.577 254.701 153.331 255.334 152.31L256.679 150.194C258.814 146.789 261.735 143.945 265.196 141.902C268.921 139.799 273.193 138.866 277.456 139.227Z" fill="#E32940"/>
<path d="M265.851 108.899C271.067 104.162 277.567 101.114 283.963 98.1349C283.953 104.125 283.934 110.201 282.329 115.941C280.725 121.682 276.661 127.27 272.275 131.261C267.867 135.406 262.93 138.948 257.592 141.796C257.434 138.873 257.23 134.813 257.187 134.066C256.602 124.127 258.287 115.765 265.851 108.899Z" fill="#E32940"/>
<path d="M197.958 218.71C198.22 218.323 198.521 217.963 198.858 217.638C199.474 216.963 200.396 215.98 201.592 214.723C202.809 213.488 204.201 211.884 205.847 210.051C206.665 209.13 207.559 208.164 208.474 207.108C209.389 206.053 210.333 204.916 211.341 203.74C215.382 199.038 219.985 193.258 225.017 186.784L228.82 181.764C230.128 180.062 231.421 178.29 232.74 176.492C233.4 175.593 234.067 174.686 234.739 173.772C235.412 172.858 236.092 171.938 236.756 170.996L240.83 165.291C242.204 163.365 243.522 161.432 244.843 159.543L246.804 156.727L248.7 153.932C249.951 152.084 251.18 150.271 252.386 148.492C253.569 146.702 254.728 144.95 255.86 143.238C257.001 141.533 258.081 139.851 259.133 138.218L262.196 133.466C263.167 131.921 264.103 130.432 265.006 128.997L266.332 126.891L267.577 124.862C269.194 122.21 270.682 119.834 271.924 117.706L273.688 114.753L274.466 113.453L275.152 112.265C276.017 110.767 276.705 109.601 277.178 108.819C277.394 108.404 277.653 108.013 277.951 107.652C277.804 108.095 277.61 108.522 277.373 108.925C276.965 109.745 276.34 110.939 275.527 112.475L274.882 113.69L274.145 115.016L272.462 118.016C271.269 120.177 269.823 122.586 268.25 125.266L267.033 127.317C266.609 128.011 266.176 128.72 265.735 129.444L262.975 133.952L259.954 138.741C258.916 140.386 257.847 142.08 256.716 143.794L253.267 149.075C252.069 150.861 250.846 152.682 249.6 154.54C248.975 155.466 248.344 156.401 247.708 157.343C247.061 158.277 246.408 159.219 245.75 160.168C244.431 162.06 243.112 163.998 241.732 165.929C240.352 167.86 238.99 169.762 237.646 171.64C236.982 172.581 236.296 173.503 235.619 174.416L233.609 177.137C232.281 178.935 230.98 180.702 229.659 182.401C228.339 184.101 227.07 185.779 225.819 187.41C220.731 193.862 216.056 199.604 211.929 204.254C210.902 205.419 209.924 206.528 208.996 207.579C208.059 208.619 207.141 209.568 206.3 210.47C204.605 212.267 203.165 213.831 201.897 215.023C200.651 216.236 199.679 217.172 199.012 217.798C198.694 218.138 198.341 218.444 197.958 218.71Z" fill="white"/>
<path d="M270.789 147.826C270.827 147.997 268.944 148.492 266.003 149.539L264.853 149.957C264.452 150.102 264.045 150.279 263.619 150.445C262.761 150.77 261.872 151.18 260.927 151.591C259.059 152.457 257.042 153.484 254.997 154.694C252.961 155.918 251.097 157.203 249.448 158.435C248.637 159.069 247.855 159.657 247.161 160.257C246.811 160.553 246.464 160.826 246.144 161.11C245.825 161.393 245.521 161.664 245.229 161.924C242.91 164.014 241.579 165.435 241.447 165.32C241.389 165.27 241.66 164.862 242.202 164.161C242.34 163.987 242.492 163.794 242.658 163.583C242.83 163.376 243.028 163.159 243.235 162.924C243.656 162.458 244.124 161.913 244.692 161.361C244.973 161.081 245.265 160.793 245.572 160.482C245.879 160.172 246.22 159.883 246.563 159.568C247.242 158.929 248.017 158.302 248.827 157.634C252.388 154.788 256.322 152.442 260.519 150.663C261.492 150.269 262.411 149.885 263.297 149.592C263.738 149.44 264.159 149.282 264.572 149.155C264.986 149.028 265.382 148.909 265.764 148.798C266.519 148.561 267.221 148.407 267.831 148.259C268.137 148.188 268.421 148.118 268.685 148.065L269.411 147.939C270.284 147.795 270.773 147.751 270.789 147.826Z" fill="white"/>
<path d="M239.456 128.515C239.805 125.889 240.391 123.292 241.021 120.614C241.618 117.949 242.25 115.206 242.703 112.369C244.78 113.996 246.757 115.748 248.624 117.613C249.598 118.611 250.496 119.68 251.311 120.813C251.71 121.376 252.081 121.959 252.42 122.561C252.767 123.15 253.073 123.762 253.336 124.392C254.411 127.047 254.993 129.876 255.053 132.74C255.126 135.601 254.783 138.457 254.037 141.219C253.225 144.095 251.95 146.82 250.261 149.284C249.534 150.359 248.764 151.314 248.062 152.201C247.32 153.079 246.614 153.883 245.981 154.655C245.567 153.517 245.094 152.195 244.645 151.097C244.195 149.998 243.812 149.125 243.693 148.856C242.116 145.632 240.847 142.265 239.902 138.802C239.08 135.436 238.929 131.94 239.456 128.515Z" fill="#E32940"/>
<path d="M248.667 135.102C248.743 135.099 248.827 135.581 248.914 136.463L248.978 137.2C248.995 137.468 249 137.759 249.011 138.074C249.025 138.702 249.06 139.418 249.026 140.21L248.99 141.453C248.975 141.885 248.93 142.333 248.898 142.798C248.841 143.726 248.708 144.713 248.581 145.758C247.95 150.274 246.703 154.681 244.874 158.858C244.439 159.813 244.038 160.721 243.593 161.545C243.376 161.957 243.18 162.363 242.967 162.739L242.345 163.817C241.959 164.508 241.555 165.101 241.215 165.627C241.039 165.889 240.884 166.135 240.728 166.354C240.572 166.572 240.417 166.769 240.288 166.946C239.752 167.65 239.426 168.017 239.363 167.975C239.219 167.877 240.246 166.224 241.665 163.443L242.212 162.35C242.402 161.97 242.578 161.563 242.772 161.148C243.172 160.323 243.541 159.418 243.94 158.466C245.626 154.328 246.847 150.015 247.579 145.607C247.732 144.589 247.897 143.624 247.99 142.712C248.041 142.257 248.105 141.817 248.143 141.394L248.249 140.175C248.505 137.053 248.492 135.11 248.667 135.102Z" fill="white"/>
<path d="M222.902 150.632C223.251 148.005 223.838 145.408 224.467 142.73C225.064 140.066 225.697 137.322 226.149 134.486C228.226 136.113 230.204 137.864 232.07 139.73C233.044 140.727 233.943 141.797 234.757 142.929C235.156 143.493 235.527 144.076 235.867 144.678C236.213 145.267 236.519 145.879 236.781 146.51C237.857 149.164 238.439 151.993 238.499 154.857C238.571 157.718 238.229 160.574 237.483 163.336C236.672 166.212 235.396 168.937 233.706 171.402C232.979 172.476 232.21 173.431 231.507 174.318C230.765 175.196 230.06 176.002 229.426 176.773C229.012 175.634 228.539 174.313 228.09 173.214C227.642 172.115 227.257 171.243 227.138 170.975C225.561 167.75 224.292 164.384 223.348 160.921C222.526 157.554 222.374 154.058 222.902 150.632Z" fill="#E32940"/>
<path d="M232.114 157.22C232.19 157.217 232.275 157.7 232.362 158.58L232.425 159.317C232.442 159.586 232.447 159.878 232.458 160.192C232.473 160.82 232.506 161.537 232.474 162.328L232.437 163.571C232.422 164.003 232.377 164.451 232.346 164.916C232.289 165.844 232.156 166.831 232.029 167.875C231.398 172.391 230.15 176.798 228.323 180.975C227.887 181.93 227.486 182.838 227.041 183.662C226.824 184.074 226.628 184.48 226.415 184.857C226.201 185.233 225.991 185.59 225.794 185.934C225.409 186.626 225.004 187.217 224.664 187.743C224.488 188.005 224.333 188.251 224.177 188.47C224.02 188.69 223.866 188.886 223.737 189.062C223.2 189.767 222.875 190.135 222.812 190.091C222.667 189.993 223.695 188.34 225.114 185.559L225.661 184.467C225.851 184.086 226.027 183.679 226.221 183.264C226.621 182.438 226.986 181.53 227.388 180.583C228.151 178.67 228.911 176.537 229.566 174.254C230.222 171.972 230.676 169.752 231.028 167.723C231.181 166.706 231.346 165.74 231.438 164.829C231.489 164.372 231.554 163.934 231.591 163.511L231.698 162.292C231.948 159.174 231.939 157.227 232.114 157.22Z" fill="white"/>
<path d="M205.701 171.438C206.051 168.811 206.636 166.214 207.265 163.537C207.862 160.871 208.496 158.129 208.948 155.292C211.025 156.919 213.002 158.67 214.869 160.535C215.843 161.533 216.741 162.603 217.555 163.736C217.955 164.299 218.326 164.882 218.665 165.483C219.012 166.072 219.317 166.684 219.58 167.315C220.655 169.97 221.237 172.799 221.297 175.663C221.37 178.524 221.028 181.38 220.281 184.142C219.469 187.018 218.193 189.742 216.504 192.207C215.777 193.281 215.008 194.237 214.305 195.123C213.562 196.002 212.857 196.807 212.223 197.578C211.809 196.44 211.336 195.118 210.888 194.02C210.44 192.922 210.055 192.049 209.937 191.779C208.359 188.554 207.09 185.188 206.146 181.724C205.324 178.358 205.173 174.863 205.701 171.438Z" fill="#E32940"/>
<path d="M214.911 178.023C214.987 178.02 215.071 178.503 215.159 179.385L215.221 180.121C215.239 180.389 215.244 180.682 215.254 180.996C215.269 181.624 215.306 182.346 215.27 183.132L215.235 184.375C215.219 184.806 215.175 185.255 215.143 185.72C215.086 186.649 214.956 187.639 214.827 188.681C214.196 193.196 212.948 197.604 211.119 201.78C210.684 202.735 210.283 203.643 209.838 204.466C209.624 204.883 209.428 205.287 209.212 205.66L208.591 206.738C208.205 207.43 207.8 208.021 207.46 208.547C207.284 208.81 207.129 209.056 206.974 209.275C206.818 209.495 206.663 209.691 206.533 209.867C205.998 210.572 205.673 210.939 205.611 210.896C205.465 210.797 206.493 209.145 207.912 206.364L208.458 205.271C208.649 204.891 208.825 204.483 209.019 204.068C209.418 203.243 209.784 202.334 210.186 201.387C210.949 199.475 211.709 197.341 212.364 195.059C213.019 192.776 213.473 190.556 213.826 188.528C213.978 187.509 214.143 186.544 214.236 185.632C214.287 185.177 214.352 184.737 214.389 184.314L214.496 183.094C214.746 179.978 214.737 178.031 214.911 178.023Z" fill="white"/>
<path d="M260.295 162.169C263.427 162.441 266.496 163.208 269.389 164.44C272.123 165.637 274.729 167.11 277.165 168.835C274.859 169.922 272.631 171.167 270.497 172.562C269.414 173.215 268.348 173.924 267.299 174.513C266.771 174.811 266.254 175.124 265.734 175.387C265.213 175.651 264.697 175.887 264.18 176.124C263.663 176.361 263.133 176.553 262.593 176.733C262.054 176.913 261.505 177.11 260.947 177.264C260.668 177.343 260.386 177.416 260.105 177.483C259.823 177.55 259.539 177.636 259.254 177.706C258.685 177.849 258.105 177.95 257.526 178.07C255.233 178.517 252.913 178.805 250.58 178.934C247.979 179.083 245.371 179.056 242.774 178.854C241.589 178.774 240.465 178.706 239.374 178.619C238.296 178.567 237.267 178.527 236.278 178.527C236.843 177.518 237.539 176.271 238.171 175.251L239.516 173.134C241.651 169.729 244.571 166.886 248.032 164.843C251.758 162.739 256.031 161.807 260.295 162.169Z" fill="#E32940"/>
<path d="M253.628 170.767C253.667 170.938 251.783 171.433 248.843 172.48C248.476 172.613 248.092 172.752 247.692 172.898C247.292 173.044 246.885 173.221 246.459 173.387C245.602 173.712 244.712 174.122 243.767 174.533C241.74 175.468 239.761 176.503 237.837 177.636C235.801 178.86 233.937 180.145 232.288 181.377C231.477 182.011 230.695 182.599 230.001 183.199C229.651 183.496 229.303 183.769 228.983 184.052C228.664 184.335 228.361 184.607 228.069 184.866C225.751 186.956 224.419 188.377 224.288 188.263C224.23 188.213 224.501 187.804 225.042 187.104C225.18 186.93 225.333 186.737 225.499 186.525C225.671 186.319 225.867 186.102 226.075 185.867C226.496 185.401 226.964 184.856 227.532 184.304C227.812 184.024 228.105 183.731 228.411 183.425C228.721 183.122 229.059 182.827 229.402 182.51C230.082 181.871 230.856 181.245 231.666 180.577C235.226 177.729 239.161 175.384 243.359 173.606C244.332 173.211 245.25 172.827 246.135 172.534C246.576 172.382 246.997 172.223 247.411 172.096L248.603 171.74C249.358 171.503 250.06 171.35 250.67 171.201C250.977 171.13 251.26 171.061 251.524 171.008L252.25 170.882C253.123 170.736 253.612 170.693 253.628 170.767Z" fill="white"/>
<path d="M244.551 182.191C247.683 182.463 250.753 183.229 253.645 184.461C256.38 185.659 258.985 187.132 261.422 188.857C259.116 189.944 256.888 191.189 254.754 192.584C253.671 193.238 252.605 193.946 251.556 194.536C251.028 194.834 250.511 195.146 249.991 195.41C249.471 195.674 248.954 195.909 248.437 196.146C247.92 196.383 247.389 196.576 246.849 196.756C246.31 196.936 245.762 197.132 245.203 197.287C244.925 197.364 244.645 197.437 244.361 197.506C244.078 197.575 243.794 197.649 243.51 197.729C242.941 197.872 242.361 197.974 241.782 198.093C239.489 198.541 237.169 198.83 234.836 198.958C232.236 199.107 229.628 199.08 227.03 198.878C225.845 198.799 224.722 198.73 223.63 198.644C222.553 198.591 221.524 198.551 220.534 198.552C221.099 197.542 221.795 196.296 222.426 195.274C223.058 194.253 223.606 193.418 223.771 193.158C225.907 189.754 228.828 186.91 232.289 184.867C236.014 182.762 240.288 181.829 244.551 182.191Z" fill="#E32940"/>
<path d="M237.886 190.789C237.925 190.96 236.041 191.454 233.1 192.501L231.949 192.919C231.549 193.064 231.142 193.241 230.715 193.408C229.858 193.733 228.968 194.143 228.025 194.554C226.156 195.42 224.139 196.448 222.094 197.656C220.058 198.881 218.194 200.166 216.545 201.398C215.735 202.032 214.951 202.621 214.258 203.22C213.907 203.516 213.56 203.789 213.242 204.072C212.923 204.356 212.618 204.628 212.327 204.886C210.008 206.977 208.678 208.396 208.545 208.283C208.488 208.234 208.759 207.825 209.3 207.125C209.438 206.951 209.59 206.758 209.756 206.546C209.929 206.339 210.125 206.123 210.333 205.888C210.754 205.422 211.222 204.876 211.789 204.325C212.07 204.045 212.363 203.751 212.669 203.445C212.977 203.142 213.317 202.847 213.659 202.531C214.339 201.892 215.114 201.265 215.923 200.597C219.484 197.75 223.418 195.404 227.616 193.625C228.588 193.231 229.508 192.848 230.394 192.553C230.834 192.402 231.256 192.244 231.67 192.116L232.862 191.76C233.617 191.522 234.318 191.37 234.928 191.222C235.235 191.151 235.518 191.081 235.782 191.028L236.508 190.902C237.382 190.759 237.87 190.715 237.886 190.789Z" fill="white"/>
<path d="M82.0842 223.609L29.1322 225.488C24.5682 225.488 20.7702 222.477 20.3912 218.562L0.0309669 8.18042C-0.395665 3.77718 3.64047 0 8.77196 0L61.7239 1.87917C66.2879 1.87917 70.0859 4.89039 70.4649 8.80548L90.8252 215.428C91.2548 219.832 87.2156 223.609 82.0842 223.609Z" fill="#1D3A62"/>
<path d="M89.4778 223.609L36.5249 225.488C31.9609 225.488 28.1629 222.477 27.7839 218.562L7.42463 8.18042C6.999 3.77718 11.0341 0 16.1656 0L69.1176 1.87917C73.6815 1.87917 77.4796 4.89039 77.8586 8.80548L98.2178 215.428C98.6455 219.832 94.6093 223.609 89.4778 223.609Z" fill="#8BA7BA"/>
<path d="M90.9331 223.609L37.9812 225.488C33.4172 225.488 29.6192 222.477 29.2402 218.562L8.87996 8.18042C8.45432 3.77718 12.4895 0 17.6209 0L70.5729 1.87917C75.1369 1.87917 78.9349 4.89039 79.3139 8.80548L99.6731 215.428C100.1 219.832 96.0646 223.609 90.9331 223.609Z" fill="#1D3A62"/>
<path d="M94.1756 218.623C93.2905 219.431 92.1297 219.87 90.9312 219.85L37.9782 221.726C36.9471 221.782 35.931 221.459 35.1219 220.817C34.3128 220.176 33.7668 219.26 33.5869 218.243L30.6312 187.677L13.2306 7.86698C13.1823 7.33109 13.2609 6.79137 13.46 6.2915C13.6591 5.79163 13.9731 5.34566 14.3766 4.98969C15.2617 4.18134 16.4225 3.74223 17.621 3.76238L70.5729 5.64154C71.604 5.58502 72.6201 5.9081 73.4292 6.54976C74.2383 7.19141 74.7844 8.10719 74.9642 9.12405L85.0417 111.409L95.3265 215.742C95.3731 216.279 95.2933 216.819 95.0934 217.319C94.8936 217.82 94.5792 218.266 94.1756 218.623Z" fill="#E6425F"/>
<path d="M84.0028 99.4161L27.7698 158.107L24.571 125.056L82.7517 88.155L84.0028 99.4161Z" fill="#E59BA7"/>
<path d="M94.1747 218.623C93.2896 219.431 92.1288 219.871 90.9303 219.85L37.9783 221.73C36.9472 221.786 35.9311 221.463 35.122 220.821C34.3129 220.18 33.7669 219.264 33.587 218.247L30.6313 187.681C43.3023 169.642 70.073 132.274 85.0428 111.404L95.3276 215.742C95.374 216.279 95.2938 216.819 95.0936 217.319C94.8934 217.82 94.5787 218.266 94.1747 218.623Z" fill="#E69BA7"/>
<path d="M31.5549 3.7583L34.2983 7.99387C34.5692 8.28813 34.8973 8.52396 35.2626 8.68689C35.6279 8.84982 36.0226 8.93642 36.4225 8.94139L58.6629 9.22018C59.1074 9.22592 59.5474 9.13067 59.9498 8.94161C60.3521 8.75256 60.7063 8.47464 60.9856 8.1288L63.4987 3.76327L31.5549 3.7583Z" fill="#1D3A62"/>
<path d="M45.4587 196.694C48.9518 196.414 51.4067 191.49 50.9419 185.697C50.477 179.904 47.2685 175.435 43.7753 175.715C40.2822 175.995 37.8273 180.919 38.2921 186.712C38.757 192.505 41.9655 196.974 45.4587 196.694Z" fill="#6DC8F9"/>
<path d="M63.6754 195.164C67.1679 194.884 69.6222 189.961 69.1574 184.169C68.6927 178.377 65.4847 173.909 61.9923 174.189C58.4999 174.47 56.0455 179.392 56.5103 185.184C56.9751 190.976 60.183 195.444 63.6754 195.164Z" fill="#6DC8F9"/>
<path d="M86.8833 182.443C87.3476 188.235 84.893 193.158 81.4016 193.437C77.9101 193.716 74.7015 189.249 74.2361 183.457C73.7708 177.664 76.2205 172.741 79.7179 172.462C83.2152 172.184 86.419 176.65 86.8833 182.443Z" fill="#48B59D"/>
<path d="M55.6015 116.69C67.7521 115.727 76.3077 98.6111 74.7109 78.4597C73.1142 58.3083 61.9698 42.7529 49.8192 43.7157C37.6686 44.6785 29.113 61.7949 30.7098 81.9463C32.3065 102.098 43.4509 117.653 55.6015 116.69Z" fill="#EFFFFB"/>
<path d="M40.426 86.264L51.0095 98.4597C51.3747 98.8809 51.8422 99.201 52.367 99.3893C52.8917 99.5776 53.456 99.6278 54.0058 99.5351C54.5555 99.4423 55.0721 99.2097 55.506 98.8596C55.9399 98.5095 56.2764 98.0537 56.4833 97.536L68.0103 68.6937C68.3272 67.9006 68.3194 67.0146 67.9884 66.2272L67.9696 66.1816C67.7195 65.5869 67.2982 65.0801 66.7592 64.7256C66.2203 64.3711 65.5881 64.185 64.943 64.1908C64.298 64.1967 63.6692 64.3943 63.1368 64.7585C62.6044 65.1227 62.1923 65.6371 61.9531 66.2361L52.2626 90.5015L45.4067 82.082C44.996 81.5776 44.4435 81.208 43.8206 81.0208C43.1976 80.8337 42.5329 80.8378 41.9122 81.0324C41.2916 81.2271 40.7436 81.6034 40.3391 82.1128C39.9346 82.6222 39.6922 83.2412 39.6432 83.8897C39.6106 84.3176 39.6629 84.7476 39.7973 85.1551C39.9316 85.5626 40.1453 85.9395 40.426 86.264Z" fill="#6DC8F9"/>
<path d="M36.2351 140.304C35.826 140.306 35.4326 140.148 35.1388 139.863C34.845 139.578 34.6743 139.19 34.6632 138.781C34.652 138.372 34.8013 137.975 35.0791 137.675C35.357 137.375 35.7412 137.195 36.1497 137.175L81.2467 134.67C81.6614 134.647 82.0683 134.789 82.3778 135.066C82.6873 135.343 82.8741 135.732 82.8972 136.146C82.9202 136.561 82.7775 136.968 82.5006 137.278C82.2236 137.587 81.835 137.774 81.4203 137.797L36.3224 140.301C36.2936 140.303 36.2638 140.304 36.2351 140.304Z" fill="#EFFFFB"/>
<path d="M70.066 27.6032H70.0224L24.9244 26.3501C24.5093 26.3386 24.1158 26.1626 23.8305 25.8608C23.5452 25.5591 23.3914 25.1564 23.403 24.7413C23.4145 24.3262 23.5905 23.9327 23.8922 23.6474C24.1939 23.3621 24.5966 23.2083 25.0117 23.2198L70.1087 24.473C70.5239 24.4786 70.9199 24.649 71.2095 24.9466C71.4991 25.2442 71.6587 25.6447 71.653 26.0599C71.6474 26.4752 71.477 26.8711 71.1794 27.1607C70.8817 27.4504 70.4813 27.6099 70.066 27.6042V27.6032Z" fill="#EFFFFB"/>
<path d="M36.2341 152.363C35.8286 152.363 35.439 152.205 35.1474 151.924C34.8558 151.642 34.6849 151.258 34.6706 150.853C34.6564 150.447 34.7999 150.052 35.0709 149.751C35.342 149.449 35.7195 149.265 36.1239 149.236L81.2209 146.105C81.6352 146.076 82.044 146.213 82.3573 146.485C82.6707 146.758 82.8629 147.144 82.8917 147.558C82.9205 147.972 82.7836 148.381 82.511 148.695C82.2384 149.008 81.8525 149.2 81.4382 149.229L36.3412 152.361C36.3075 152.361 36.2708 152.363 36.2341 152.363Z" fill="#EFFFFB"/>
<path d="M96.1858 45.4682C96.1858 45.4682 93.2351 35.3213 93.0644 33.6802C92.8938 32.0392 91.973 26.7142 94.6251 25.1476C97.2772 23.581 95.7165 18.8841 98.5313 17.9445C101.62 16.9156 105.47 17.0942 108.67 17.2023C112.639 17.3363 117.758 19.1509 119.44 23.1901C120.683 26.1755 119.156 31.5868 118.482 34.6803L96.1858 45.4682Z" fill="#4D3426"/>
<g style="mix-blend-mode:overlay" opacity="0.52">
<path d="M95.6767 33.6793C95.506 32.0383 94.5853 26.7133 97.2373 25.1467C99.8894 23.5801 98.3287 18.8831 101.144 17.9436C102.903 17.4158 104.729 17.1441 106.566 17.1369C103.861 16.9576 101.145 17.2302 98.5291 17.9436C95.7104 18.8831 97.276 23.5811 94.623 25.1467C91.9699 26.7123 92.8916 32.0373 93.0623 33.6793C93.233 35.3214 96.1837 45.4673 96.1837 45.4673L98.4766 44.358C97.7076 41.6831 95.8126 34.988 95.6767 33.6793Z" fill="#FFF200"/>
</g>
<path d="M116.843 45.3106C116.673 46.4315 116.08 47.4448 115.187 48.1422C112.753 49.9162 108.714 48.3615 107.573 51.97C107.328 52.7558 106.83 53.8372 106.593 54.9018C106.346 55.6861 106.417 56.536 106.791 57.2681C106.989 57.5727 107.349 57.8853 107.264 58.2821C107.18 58.679 106.707 58.8993 106.371 59.0253C105.653 59.2373 104.899 59.2948 104.157 59.1939C101.006 58.9528 94.8661 57.5073 94.0108 53.7618C93.8707 52.7397 93.9958 51.6986 94.374 50.7387C95.4912 47.0121 97.9557 41.9461 97.3624 38.0112C96.8612 37.7362 96.3828 37.4216 95.9317 37.0706C95.5181 36.5371 95.3106 35.8724 95.3473 35.1984C95.4573 34.4528 95.7505 33.746 96.2007 33.1416C96.6509 32.5371 97.244 32.0537 97.9269 31.7347C100.197 30.6691 101.083 33.6883 101.826 35.2976C102.088 35.8631 102.401 36.5825 103.127 36.2898C103.542 36.1685 103.908 35.9195 104.173 35.5783C104.439 35.237 104.59 34.8208 104.605 34.3888C104.476 33.6861 104.49 32.9644 104.648 32.2675C105.273 30.6453 107.25 29.8863 108.307 28.5965C108.93 27.7412 109.208 26.682 109.084 25.6309C109.11 24.7777 110.047 24.4562 110.732 24.1943C111.999 23.7131 114.196 22.9273 115.489 23.7547C116.309 24.2875 116.588 25.4533 116.917 26.3066C117.289 27.2869 117.796 28.2155 118.084 29.2216C119.275 33.5127 117.78 41.0442 116.843 45.3106Z" fill="#FFB980"/>
<g style="mix-blend-mode:overlay" opacity="0.52">
<path d="M99.3845 40.3221C99.6316 37.038 99.9054 34.4256 99.9679 33.7242C100.062 33.3013 100.071 32.8637 99.9923 32.4375C99.9139 32.0113 99.7504 31.6053 99.5115 31.2438C98.0233 29.5819 95.402 34.0397 95.3504 35.1946C95.3137 35.8686 95.5212 36.5333 95.9347 37.0668C96.3859 37.4178 96.8643 37.7323 97.3655 38.0074C97.9608 41.9423 95.4932 47.0083 94.377 50.7349C93.999 51.6945 93.874 52.7351 94.0139 53.757C94.6092 56.3495 97.7355 57.8408 100.651 58.5928C98.4251 58.0213 98.8418 47.545 99.3845 40.3221Z" fill="#FFF200"/>
</g>
<path d="M118.085 29.2118C117.797 28.2067 117.291 27.277 116.918 26.2968C116.589 25.4435 116.31 24.2777 115.49 23.7449C114.276 22.9671 112.266 23.613 110.975 24.0942C111.141 29.6781 111.914 35.2531 107.925 39.2416C106.672 41.1207 102.289 38.6155 101.662 40.4947C99.4098 46.2676 99.055 52.6076 100.649 58.5958C101.799 58.8938 102.973 59.093 104.158 59.1911C104.9 59.292 105.654 59.2345 106.372 59.0224C106.711 58.8954 107.184 58.6672 107.265 58.2793C107.347 57.8913 106.986 57.5699 106.792 57.2653C106.418 56.5331 106.347 55.6832 106.594 54.899C106.83 53.8344 107.329 52.7529 107.574 51.9671C108.715 48.3586 112.754 49.9143 115.188 48.1393C116.082 47.4427 116.675 46.4295 116.844 45.3087C117.78 41.0444 119.275 33.5128 118.085 29.2118Z" fill="#FFB980"/>
<path d="M114.31 48.3109H114.472C113.272 49.1354 111.809 49.0957 110.434 49.4618C109.776 49.5818 109.162 49.8776 108.658 50.318C108.154 50.7583 107.779 51.3268 107.572 51.9631C107.274 52.9324 106.894 53.9712 106.555 54.882C105.733 54.1875 105.669 52.7786 105.463 51.7934C105.277 50.8719 105.174 49.9355 105.156 48.9955C105.098 46.2661 107.455 47.3594 109.216 47.6551C110.897 47.9911 112.599 48.2103 114.31 48.3109Z" fill="#FF7657"/>
<path d="M116.188 37.4109C113.791 37.0805 108.548 37.8078 106.511 38.1173C106.529 38.0713 106.532 38.0211 106.521 37.9732C106.509 37.9253 106.484 37.8818 106.448 37.8484C105.62 37.0934 104.797 36.261 103.905 35.5863C102.978 34.8858 101.907 34.3213 100.928 33.7012C101.382 34.7757 102.04 35.0565 102.883 35.744C103.908 36.5788 104.946 37.3973 105.997 38.1997L105.679 38.2512C105.093 39.5684 104.844 41.0107 104.954 42.4481C104.988 43.119 105.07 43.7867 105.198 44.4463C105.291 44.9424 105.68 45.5923 105.456 46.0844C104.608 45.6405 103.831 45.0753 103.147 44.4066C100.742 42.4602 98.6188 40.1896 96.8376 37.6599C97.1034 38.2074 97.3353 38.7707 97.5322 39.3466C97.9197 39.9689 98.3731 40.5477 98.8845 41.073C99.6246 41.9292 100.429 42.7051 101.186 43.5365C101.694 44.129 102.268 44.6616 102.897 45.124C103.366 45.4514 103.857 45.7461 104.366 46.006C104.58 46.1142 105.69 46.4148 105.755 46.6073C105.876 46.9744 105.965 47.1936 105.965 47.1936C105.965 47.1936 109.668 51.5403 114.475 48.3158C119.282 45.0912 118.528 39.0579 118.528 39.0579C118.528 39.0579 119.197 37.8226 116.188 37.4109Z" fill="#48B59D"/>
<g style="mix-blend-mode:overlay" opacity="0.52">
<path d="M107.7 37.9437C107.243 38.0072 106.834 38.0677 106.509 38.1173C106.527 38.0713 106.53 38.0211 106.519 37.9732C106.507 37.9253 106.482 37.8818 106.446 37.8484C105.618 37.0934 104.795 36.261 103.903 35.5863C102.976 34.8868 101.905 34.3223 100.926 33.7012C101.38 34.7757 102.038 35.0565 102.881 35.744C103.906 36.5788 104.944 37.3973 105.995 38.1997L105.677 38.2512C105.091 39.5684 104.842 41.0107 104.952 42.4481C104.986 43.119 105.068 43.7867 105.196 44.4463C105.289 44.9424 105.678 45.5923 105.454 46.0844C104.606 45.6405 103.829 45.0753 103.145 44.4066C100.74 42.4602 98.6168 40.1896 96.8357 37.6599C97.1016 38.2074 97.3335 38.7707 97.5302 39.3466C97.9178 39.9689 98.3711 40.5477 98.8825 41.073C99.6227 41.9292 100.427 42.7051 101.185 43.5365C101.693 44.1292 102.267 44.6619 102.896 45.124C103.365 45.4514 103.856 45.7461 104.365 46.006C104.579 46.1142 105.689 46.4148 105.754 46.6073C105.875 46.9744 105.964 47.1936 105.964 47.1936C107.101 48.4353 108.636 49.2422 110.303 49.4756C108.134 46.046 107.214 41.9727 107.7 37.9437Z" fill="#FFF200"/>
</g>
<path d="M109.367 57.5458C109.02 58.1288 108.506 58.5932 107.89 58.8776C107.275 59.1621 106.587 59.2533 105.919 59.1392C105.364 58.9268 104.844 58.6328 104.376 58.2671C103.51 57.6847 102.645 57.1102 101.75 56.5725C100.109 55.5224 98.3578 54.6573 96.527 53.9928C95.7273 53.7229 94.8969 53.6148 94.0753 53.4174C93.4939 53.2794 93.0494 53.0681 93.0643 52.3994C93.1377 51.6369 93.2965 50.8851 93.5376 50.1581C93.6192 49.5907 93.8881 49.0669 94.3016 48.6698C95.1945 48.0071 96.6828 48.769 97.5172 49.157C99.3838 50.1293 101.2 51.1952 102.959 52.3508C104.462 53.2246 106.06 53.9237 107.722 54.4343C108.674 54.7548 109.824 55.1914 109.752 56.3988C109.728 56.8086 109.595 57.2045 109.367 57.5458Z" fill="#EF5B51"/>
<path d="M75.3909 217.621C73.0683 216.091 73.2985 212.915 72.2874 210.66C70.9097 207.807 68.7155 205.428 65.9832 203.824C63.0216 202.104 58.4368 201.307 55.3968 203.328C52.9719 204.938 49.9815 209.246 52.6892 211.784C58.2959 217.093 66.3741 222.195 73.7797 224.472C75.378 224.962 78.4617 226.556 79.5977 224.564C80.2982 223.339 80.8875 221.439 80.0353 220.042C79.0401 218.406 76.8722 218.597 75.3909 217.621Z" fill="#3C464F"/>
<g style="mix-blend-mode:overlay" opacity="0.52">
<path d="M56.7035 213.391C53.9958 210.853 56.9872 206.545 59.4111 204.934C60.4432 204.337 61.5831 203.948 62.7655 203.792C63.948 203.635 65.1496 203.714 66.3017 204.023C66.1955 203.957 66.0913 203.883 65.9842 203.824C63.0226 202.104 58.4378 201.307 55.3978 203.328C52.9729 204.938 49.9825 209.246 52.6901 211.784C58.4354 217.177 65.2057 221.361 72.599 224.087C66.7679 221.385 61.4027 217.775 56.7035 213.391Z" fill="#FFF200"/>
</g>
<path d="M107.387 159.597C106.485 163.355 106.51 167.251 103.693 170.327C102.986 171.071 102.207 171.742 101.368 172.332C100.785 172.764 100.19 173.177 99.6207 173.608C98.2662 174.624 96.9715 175.717 95.7433 176.883C93.4092 179.164 91.2813 181.646 89.3845 184.302C87.1992 187.468 84.8405 190.511 82.3193 193.416C81.0883 194.695 79.7788 195.895 78.3982 197.011C77.473 197.704 76.6541 198.529 75.9674 199.459C75.4713 200.236 75.2789 201.157 74.8086 201.947C74.2192 202.924 73.0792 203.344 72.3718 204.208C72.0324 204.599 71.7799 205.058 71.6309 205.554C71.4819 206.05 71.4399 206.572 71.5076 207.085C71.6574 208.038 72.3411 209.24 71.2824 209.891C70.2362 210.363 69.1222 210.667 67.9815 210.793C66.1589 211.207 64.5744 211.606 62.8222 210.755C60.8051 209.763 59.6899 208.111 58.4745 206.301C57.9567 205.626 57.3391 205.032 56.643 204.542C56.3267 204.267 56.073 203.927 55.8991 203.546C55.7252 203.164 55.6351 202.75 55.635 202.331C55.588 200.944 56.0341 199.586 56.894 198.498C57.9937 197.21 59.2192 196.035 60.5521 194.991C61.8608 193.845 63.1645 192.673 64.4107 191.452C66.9404 188.949 69.2264 186.212 71.2378 183.277C73.3114 180.277 75.1965 177.145 77.282 174.149C79.2548 171.281 81.585 168.675 84.2163 166.395C86.6402 164.322 89.6732 162.367 91.1436 159.43C91.7165 158.1 92.1959 156.731 92.5783 155.334C94.3076 150.291 92.9295 144.541 92.5088 139.274C92.1576 134.902 91.9512 130.035 94.7442 126.646C95.7463 126.89 96.7553 127.128 97.7574 127.373C98.6792 127.194 99.6318 127.263 100.519 127.571C101.139 127.788 101.726 128.089 102.266 128.464C103.318 128.721 104.364 128.971 105.416 129.228L104.69 130.617C107.336 133.477 109.256 136.931 110.289 140.688C110.678 142.062 110.939 143.469 111.066 144.891C111.559 150.263 108.622 154.447 107.387 159.597Z" fill="#A2B1C4"/>
<path d="M62.2368 210.064C61.72 209.388 61.1034 208.794 60.4083 208.304C60.0917 208.029 59.8378 207.689 59.6637 207.308C59.4896 206.927 59.3994 206.512 59.3992 206.093C59.3522 204.706 59.7984 203.348 60.6583 202.259C61.7586 200.972 62.984 199.797 64.3164 198.752C65.6261 197.606 66.9288 196.434 68.175 195.213C70.7033 192.711 72.9879 189.973 74.9981 187.038C77.0717 184.038 78.9568 180.907 81.0424 177.911C83.0152 175.042 85.3454 172.436 87.9766 170.156C90.4005 168.082 93.4335 166.129 94.9039 163.191C95.4767 161.86 95.9557 160.491 96.3376 159.094C98.067 154.052 96.6889 148.302 96.2682 143.035C95.9179 138.662 95.7106 133.796 98.5045 130.408C99.5066 130.652 100.515 130.89 101.517 131.135C102.439 130.956 103.392 131.024 104.279 131.333C104.899 131.551 105.487 131.851 106.026 132.226L106.052 132.233C105.619 131.676 105.17 131.13 104.689 130.614L105.415 129.225C104.363 128.968 103.318 128.718 102.265 128.461C101.725 128.086 101.138 127.785 100.518 127.568C99.6308 127.26 98.6782 127.191 97.7564 127.37C96.7543 127.125 95.7453 126.887 94.7432 126.643C91.9503 130.032 92.1566 134.898 92.5079 139.271C92.9275 144.538 94.3057 150.284 92.5773 155.331C92.195 156.728 91.7156 158.097 91.1426 159.427C89.6713 162.364 86.6392 164.319 84.2153 166.392C81.584 168.672 79.2538 171.278 77.2811 174.146C75.1975 177.141 73.3124 180.272 71.2368 183.274C69.2255 186.209 66.9395 188.946 64.4097 191.449C63.1635 192.67 61.8598 193.842 60.5511 194.988C59.2182 196.032 57.9928 197.207 56.893 198.495C56.0332 199.583 55.587 200.941 55.634 202.328C55.6339 202.748 55.7239 203.163 55.898 203.545C56.072 203.927 56.3261 204.267 56.643 204.542C57.3382 205.033 57.9547 205.626 58.4716 206.302C59.6463 208.053 60.7357 209.65 62.6288 210.649C62.4998 210.457 62.3691 210.261 62.2368 210.064Z" fill="#6DC8F9"/>
<path d="M107.387 159.595C106.486 163.354 106.51 167.249 103.693 170.326C102.986 171.069 102.207 171.74 101.368 172.33C100.543 166.686 103.038 163.097 102.988 157.564C102.938 151.949 98.0343 149.396 97.3913 144.545C97.184 142.985 96.9945 141.426 96.8089 139.866C96.3516 135.964 95.7572 131.304 100.786 133.101C101.512 133.362 102.214 133.684 102.884 134.066C105.755 135.778 108.27 138.026 110.293 140.687C110.682 142.06 110.943 143.467 111.07 144.889C111.559 150.262 108.622 154.447 107.387 159.595Z" fill="#A2B1C4"/>
<path d="M94.2581 127.921C94.3741 129.685 94.8392 131.408 95.6263 132.991C96.3473 134.249 97.25 135.394 98.3051 136.388C99.71 137.777 101.267 139.001 102.641 140.419C103.923 141.805 105.021 143.35 105.907 145.017C108.017 148.749 109.975 152.59 112.44 156.111C113.546 157.682 114.964 158.988 116.084 160.548C116.563 161.498 116.993 162.472 117.374 163.466C118.02 164.571 119.025 165.343 119.367 166.63C119.605 167.524 119.58 168.469 119.294 169.35C119.032 170.144 118.633 170.886 118.356 171.678C118.056 172.531 117.823 173.407 117.661 174.297C117.356 175.912 117.182 177.549 117.014 179.179C116.505 184.052 115.989 188.926 115.501 193.808C115.291 195.882 115.104 197.962 115.014 200.05C114.861 201.638 114.92 203.239 115.189 204.812C115.458 206.02 116.098 206.857 115.647 208.122C115.153 209.107 114.604 210.064 114.003 210.987C113.468 212.36 113.153 213.809 113.072 215.281C112.955 216.173 112.628 217.586 113.159 218.445C113.726 219.353 115.242 219.071 116.105 218.932C117.996 218.655 119.857 218.197 121.661 217.563C123.249 216.974 124.766 216.21 126.186 215.286C127.488 214.449 129.14 213.461 129.918 212.071C130.405 210.85 130.604 209.533 130.499 208.222C130.708 206.49 131.012 204.771 131.409 203.072C131.99 199.137 131.336 195.107 131.874 191.156C132.158 189.082 132.71 187.067 133.065 185.005C133.314 183.058 133.419 181.096 133.377 179.134C133.374 177.709 133.626 176.295 134.119 174.959C134.664 173.547 135.53 172.209 135.691 170.674C135.767 168.887 135.657 167.098 135.363 165.334C135.186 163.374 134.813 161.436 134.25 159.55C133.617 157.623 132.49 155.906 131.748 154.021C130.897 151.875 130.242 149.649 129.523 147.452C128.199 143.408 126.532 139.494 124.982 135.536C124.241 133.637 123.6 131.695 122.815 129.803C122.45 128.768 121.864 127.825 121.098 127.039C120.429 126.422 119.91 125.66 119.578 124.813" fill="#A2B1C4"/>
<path d="M119.845 215.285C119.926 213.813 120.24 212.364 120.776 210.991C121.377 210.068 121.926 209.111 122.421 208.126C122.871 206.86 122.231 206.024 121.962 204.816C121.694 203.243 121.635 201.642 121.789 200.054C121.883 197.97 122.064 195.887 122.276 193.812C122.763 188.931 123.28 184.057 123.789 179.183C123.957 177.553 124.131 175.916 124.437 174.301C124.599 173.411 124.831 172.535 125.131 171.682C125.407 170.888 125.807 170.147 126.07 169.354C126.355 168.473 126.38 167.529 126.142 166.634C125.8 165.344 124.796 164.575 124.149 163.47C123.768 162.476 123.338 161.502 122.859 160.552C121.739 158.995 120.32 157.685 119.215 156.115C116.748 152.593 114.792 148.753 112.683 145.021C111.796 143.354 110.698 141.809 109.416 140.423C108.041 139.005 106.484 137.781 105.081 136.392C104.025 135.398 103.123 134.253 102.402 132.995C101.615 131.412 101.15 129.689 101.035 127.925L119.953 125.609C119.809 125.356 119.681 125.095 119.57 124.826L94.261 127.925C94.3771 129.689 94.8421 131.412 95.6292 132.995C96.3501 134.253 97.2528 135.398 98.308 136.392C99.7119 137.781 101.269 139.005 102.643 140.423C103.925 141.809 105.023 143.354 105.909 145.021C108.019 148.753 109.977 152.594 112.441 156.115C113.548 157.686 114.966 158.992 116.086 160.552C116.564 161.502 116.995 162.476 117.375 163.47C118.022 164.575 119.026 165.347 119.369 166.634C119.607 167.528 119.582 168.473 119.296 169.354C119.034 170.148 118.635 170.89 118.358 171.682C118.058 172.535 117.825 173.411 117.663 174.301C117.358 175.916 117.184 177.553 117.016 179.183C116.507 184.056 115.99 188.93 115.503 193.812C115.292 195.886 115.106 197.966 115.016 200.054C114.863 201.642 114.922 203.243 115.191 204.816C115.46 206.024 116.1 206.861 115.649 208.126C115.155 209.111 114.606 210.068 114.005 210.991C113.47 212.364 113.155 213.813 113.073 215.285C112.957 216.177 112.63 217.59 113.161 218.449C113.728 219.357 115.244 219.075 116.107 218.936C117.35 218.744 118.582 218.481 119.795 218.149C119.599 217.202 119.616 216.224 119.845 215.285Z" fill="#6DC8F9"/>
<path d="M93.0644 52.5552C92.3699 53.2497 91.6962 53.9591 91.0493 54.6943C88.3123 57.7748 86.4909 61.5591 85.7909 65.62C85.2439 69.6823 85.4507 73.8106 86.401 77.7979C87.2523 82.1267 88.2058 86.4397 89.0342 90.7754C89.8131 94.8562 90.3806 98.9668 90.7943 103.106C91.219 107.362 90.326 111.181 90.3538 115.431C90.3717 118.377 89.0968 121.101 89.2932 124.022C89.4311 126.08 89.7069 129.137 91.6744 130.243C92.7699 130.764 93.9564 131.068 95.1678 131.136C101.646 131.93 105.101 132.885 111.356 130.662C114.295 129.628 117.694 129.455 120.465 127.983C121.494 127.437 122.136 127.158 122.413 125.981C122.527 125.496 122.26 123.132 121.48 123.151C122.654 123.123 123.304 121.604 122.924 120.494C122.366 118.865 121.115 118.323 120.665 116.617C120.089 114.435 120.181 111.887 119.97 109.643L118.966 98.942C118.246 93.3402 117.562 87.7245 116.725 82.1376C115.873 76.4634 115.19 70.6364 113.495 65.1368C112.623 62.3597 111.217 59.7798 109.356 57.5418L93.0644 52.5552Z" fill="#EF5B51"/>
<g style="mix-blend-mode:overlay" opacity="0.52">
<path d="M100.741 131.141C99.5294 131.073 98.3428 130.769 97.2474 130.248C95.2759 129.141 95.0011 126.081 94.8662 124.027C94.6677 121.106 95.9446 118.381 95.9258 115.436C95.899 111.187 96.791 107.367 96.3673 103.111C95.9526 98.9716 95.3851 94.8611 94.6072 90.7803C93.7777 86.4445 92.8213 82.1306 91.974 77.8028C91.0233 73.8156 90.8161 69.6873 91.3628 65.6249C92.0626 61.5639 93.884 57.7795 96.6213 54.6992C96.8664 54.4204 97.1174 54.1495 97.3724 53.8786L93.0674 52.5601C92.3728 53.2546 91.7001 53.964 91.0523 54.6992C88.3152 57.7797 86.4938 61.564 85.7938 65.6249C85.2468 69.6872 85.4536 73.8155 86.404 77.8028C87.2552 82.1316 88.2087 86.4445 89.0372 90.7803C89.816 94.8611 90.3836 98.9716 90.7973 103.111C91.2219 107.367 90.329 111.186 90.3568 115.436C90.3746 118.381 89.0997 121.106 89.2961 124.027C89.434 126.085 89.7099 129.141 91.6773 130.248C92.7728 130.769 93.9594 131.072 95.1707 131.141C99.7804 131.705 102.864 132.346 106.511 131.871C104.783 131.694 102.936 131.41 100.741 131.141Z" fill="#FFF200"/>
</g>
<path d="M92.1834 95.7909C92.8958 99.1146 93.7084 102.632 96.0985 105.048C97.8774 106.848 100.313 107.805 102.673 108.719L118.982 115.006C118.823 111.475 118.664 107.944 118.504 104.413C108.354 100.551 99.6547 93.6325 93.6072 84.6131C92.5862 83.0852 90.0959 77.5409 89.5978 82.2319C89.1523 86.4139 91.3063 91.6972 92.1834 95.7909Z" fill="#D64238"/>
<path d="M108.23 78.667C109.123 84.8899 107.329 91.3618 108.859 97.4587C108.604 96.4427 106.634 94.8582 105.987 93.9295C105.092 92.6432 104.292 91.2929 103.594 89.8894C102.173 87.0283 101.167 83.9791 100.606 80.8339C100.04 77.6911 99.9307 74.4832 100.281 71.3091C100.491 69.4389 101.42 63.3718 103.897 66.9337C106.173 70.4853 107.651 74.4885 108.23 78.667Z" fill="#D64238"/>
<path d="M113.848 218.972C113.346 220.906 113.339 222.935 113.827 224.873C114.336 226.626 116.17 226.612 117.69 226.678C123.175 226.925 128.689 226.808 134.182 226.772C137.171 226.75 140.169 226.786 143.159 226.627C144.519 226.554 146.949 226.685 147.836 225.332C148.585 224.183 148.207 222.262 147.806 221.077C147.718 220.698 147.525 220.351 147.25 220.076C146.975 219.801 146.629 219.608 146.25 219.52C145.087 219.296 143.911 219.155 142.728 219.098C140.788 218.981 138.91 218.37 137.271 217.323C135.344 215.977 133.867 214.148 131.764 213.038C131.154 212.718 130.535 212.42 129.917 212.115" fill="#3C464F"/>
<path d="M163.79 75.9298C163.82 76.0727 163.777 76.2671 163.795 76.4904C163.822 76.92 163.846 77.3436 163.872 77.7732L164.684 91.2955C164.84 93.9353 164.997 96.5775 165.155 99.2219C165.411 103.464 165.664 107.705 165.914 111.945C165.973 112.915 166.028 113.894 166.086 114.863C159.791 115.234 153.495 115.608 147.199 115.986C146.325 116.039 145.448 116.085 144.574 116.141L133.521 116.802L120.419 117.584L120.023 117.608C119.381 117.646 118.733 117.688 118.09 117.722C117.832 113.315 117.571 108.908 117.307 104.5C116.887 97.4717 116.468 90.4452 116.05 83.4207C115.951 81.8044 115.859 80.1902 115.758 78.5739C116.223 78.5878 116.687 78.5613 117.147 78.4945C118.415 78.4172 119.683 78.3398 120.948 78.2713C125.023 78.0266 129.099 77.7838 133.176 77.5431C138.008 77.252 142.84 76.964 147.671 76.6789L159.44 75.9784C160.562 75.909 161.687 75.8455 162.808 75.78C163.069 75.7283 163.336 75.7116 163.602 75.7304C163.649 75.7414 163.692 75.7662 163.726 75.8016C163.759 75.8371 163.782 75.8817 163.79 75.9298Z" fill="#D49F55"/>
<path d="M164.602 76.0268L116.211 78.4351L118.127 116.951L166.519 114.543L164.602 76.0268Z" fill="#D49F55"/>
<path d="M143.839 77.0589L136.976 77.4023L138.167 101.211L145.03 100.868L143.839 77.0589Z" fill="#F0CD9C"/>
<path d="M164.505 76.156C164.533 76.2979 164.491 76.4934 164.505 76.7166C164.531 77.1462 164.555 77.5699 164.582 77.9995L165.394 91.5217C165.55 94.1615 165.707 96.8037 165.865 99.4481C166.121 103.69 166.374 107.931 166.624 112.172C166.682 113.141 166.738 114.119 166.795 115.09C160.5 115.46 154.205 115.834 147.909 116.212C147.034 116.265 146.157 116.311 145.283 116.368L134.231 117.028L121.135 117.805L118.096 117.716L160.696 110.925L163.524 76.0002L164.505 76.156Z" fill="#D1773B"/>
<path d="M163.11 103.908L155.75 104.275L156.116 111.636L163.477 111.269L163.11 103.908Z" fill="#4A6570"/>
<path d="M153.444 105.89L146.084 106.256L146.141 107.397L153.501 107.031L153.444 105.89Z" fill="#4A6570"/>
<path d="M153.577 108.563L146.217 108.929L146.274 110.07L153.634 109.703L153.577 108.563Z" fill="#4A6570"/>
<path d="M141.255 106.881C140.218 106.902 139.194 107.227 138.132 107.253C135.707 107.311 133.568 105.97 131.467 104.95C124.269 101.463 116.634 98.1613 109.937 93.7571C108.259 92.6538 102.893 80.4621 103.802 80.2974L91.6863 82.5397C93.362 88.1861 93.9554 98.8578 100.331 101.515C105.338 103.598 110.282 105.955 115.36 107.845C120.738 109.846 126.488 110.567 131.882 112.508C136.102 114.03 139.349 118.484 144.036 118.533C144.958 118.518 145.877 118.435 146.786 118.283L149.673 117.875C150.177 117.837 150.669 117.702 151.122 117.478C151.347 117.362 151.534 117.185 151.662 116.967C151.79 116.749 151.854 116.499 151.845 116.247C151.376 116.321 150.059 114.865 149.433 114.651C148.044 114.177 146.875 113.712 146.358 112.303C147.069 114.436 149.983 113.736 151.461 113.088C149.073 111.067 145.484 107.86 142.423 107.015C142.042 106.914 141.649 106.869 141.255 106.881Z" fill="#FFB980"/>
<g style="mix-blend-mode:overlay" opacity="0.52">
<g style="mix-blend-mode:overlay" opacity="0.52">
<path d="M150.184 112.72C150.316 112.965 150.483 113.188 150.68 113.384L150.789 113.349C150.54 113.191 150.333 112.975 150.184 112.72Z" fill="#FFF200"/>
</g>
<g style="mix-blend-mode:overlay" opacity="0.52">
<path d="M141.765 107.253C142.12 107.24 142.475 107.204 142.825 107.145C142.691 107.1 142.557 107.054 142.429 107.017C142.047 106.915 141.653 106.87 141.259 106.882C140.805 106.901 140.353 106.952 139.906 107.035C140.513 107.19 141.138 107.264 141.765 107.253Z" fill="#FFF200"/>
</g>
<g style="mix-blend-mode:overlay" opacity="0.52">
<path d="M135.515 112.511C130.121 110.565 124.371 109.844 118.994 107.848C113.915 105.963 108.973 103.602 103.964 101.518C97.5887 98.8607 96.9954 88.19 95.3196 82.5426L103.753 80.9819C103.67 80.5741 103.674 80.3241 103.797 80.3013L91.6863 82.5396C93.362 88.186 93.9554 98.8578 100.331 101.515C105.338 103.598 110.282 105.955 115.36 107.845C120.738 109.846 126.488 110.567 131.882 112.508C136.102 114.03 139.349 118.484 144.036 118.532C144.762 118.528 145.486 118.472 146.204 118.364C142.271 117.553 139.281 113.869 135.515 112.511Z" fill="#FFF200"/>
</g>
</g>
<path d="M105.082 66.7769C105.192 67.2859 105.294 67.788 105.395 68.2969C106.1 71.9342 105.359 75.6221 105.381 79.2822C105.388 80.2744 105.49 81.2666 105.585 82.2587C105.657 82.7377 105.672 83.2238 105.628 83.7063C105.439 84.9277 103.954 84.5357 103.097 84.3899C99.878 83.7083 96.527 84.0361 93.5009 85.3285C92.8896 85.7063 92.235 86.0091 91.5513 86.2304C90.9481 86.3544 90.7655 85.903 90.6425 85.387C90.2714 83.7996 90.1335 82.1784 89.7039 80.5929C89.1721 78.6085 88.5252 76.6579 87.9795 74.6786C87.5233 72.8935 87.2216 71.0724 87.0776 69.2355C86.6292 64.6865 86.5161 59.0073 92.0325 57.4605C96.6808 56.1548 104.12 62.2904 105.082 66.7769Z" fill="#EF5B51"/>
<g style="mix-blend-mode:overlay" opacity="0.52">
<g style="mix-blend-mode:overlay" opacity="0.52">
<path d="M93.2945 85.387C92.9235 83.7996 92.7846 82.1784 92.356 80.5919C91.8242 78.6076 91.1773 76.657 90.6316 74.6776C90.175 72.8925 89.8733 71.0715 89.7297 69.2346C89.2812 64.6855 89.1681 59.0063 94.6846 57.4595C94.7203 57.4496 94.758 57.4446 94.7937 57.4347C93.8845 57.2227 92.9378 57.2312 92.0325 57.4595C86.5161 59.0073 86.6292 64.6855 87.0776 69.2346C87.2216 71.0714 87.5233 72.8925 87.9795 74.6776C88.5252 76.657 89.1701 78.6066 89.7039 80.5919C90.1335 82.1794 90.2714 83.8006 90.6425 85.387C90.7665 85.903 90.9481 86.3544 91.5513 86.2304C92.1708 86.0469 92.7616 85.7778 93.3065 85.4307C93.3015 85.4158 93.2945 85.4009 93.2945 85.387Z" fill="#FFF200"/>
</g>
</g>
<path d="M93.4404 31.16C95.5401 30.4048 97.7259 29.9145 99.947 29.7006C101.132 30.082 102.375 30.2499 103.618 30.1966C104.707 29.8175 105.756 29.3309 106.749 28.7441C108.381 28.1561 110.077 27.7641 111.801 27.5763C114.044 27.0749 116.381 27.2141 118.548 27.9782C118.867 28.1496 119.233 28.215 119.592 28.1647C120.728 27.8551 120.386 24.7774 120.139 23.9976C119.379 22.254 118.291 20.6731 116.933 19.3413C115.76 17.9362 114.305 16.7928 112.662 15.985C111.019 15.1771 109.225 14.7228 107.396 14.6514C103.579 14.6514 99.3239 15.7011 96.4536 18.503C93.4543 21.4318 90.9719 27.6855 92.731 31.7186C92.6586 31.5648 92.9443 31.3684 93.4404 31.16Z" fill="#EF5B51"/>
<path d="M104.806 29.7026C103.83 29.7525 102.863 29.8997 101.917 30.1422C102.477 30.2664 103.055 30.2866 103.622 30.2017C104.07 30.1067 104.502 29.9452 104.902 29.7225L104.806 29.7026Z" fill="#D64238"/>
<g style="mix-blend-mode:overlay" opacity="0.52">
<path d="M101.311 18.5099C103.563 16.4625 106.406 15.1824 109.431 14.8537C108.76 14.7231 108.078 14.6567 107.394 14.6553C103.577 14.6553 99.322 15.705 96.4517 18.5069C93.4523 21.4357 90.9699 27.6894 92.729 31.7225C92.6586 31.5618 92.9444 31.3653 93.4404 31.159C94.6387 30.7184 95.8699 30.3727 97.1224 30.1251C96.4576 26.1882 98.686 21.0736 101.311 18.5099Z" fill="#FFF200"/>
</g>
<path d="M117.019 27.5296C117.54 27.6387 118.051 27.7903 118.547 27.983C118.866 28.1545 119.232 28.2198 119.591 28.1695C119.921 28.0793 120.124 27.7528 120.243 27.3203C119.164 27.2853 118.084 27.3554 117.019 27.5296Z" fill="#D64238"/>
<path d="M111.1 17.5685C113.409 17.0575 115.763 18.6598 116.909 20.7285C118.055 22.7972 118.252 25.2409 118.429 27.5983C118.389 27.0486 107.692 28.524 106.991 28.5805C105.629 25.1238 106.794 18.5219 111.1 17.5685Z" fill="white"/>
<path d="M104.417 30.256C104.168 30.25 103.921 30.2268 103.676 30.1866C103.291 30.1415 102.932 29.9728 102.652 29.7058C102.371 29.4388 102.186 29.088 102.122 28.7063C101.964 26.1365 109.075 25.0481 110.714 24.8427C114.742 24.4172 118.814 24.7493 122.719 25.822C123.604 25.9577 124.411 26.4062 124.993 27.086C126.856 29.7966 121.744 29.3869 120.549 29.3482C117.138 29.237 113.732 29.2242 110.324 29.4176C108.514 29.5218 106.301 30.3046 104.417 30.256Z" fill="#EF5B51"/>
<path d="M120.554 27.8997C117.143 27.7886 113.737 27.7757 110.328 27.9692C107.29 28.1428 104.339 29.2203 101.444 30.0666C104.504 30.0825 107.321 29.5547 110.329 29.4178C113.738 29.2243 117.144 29.2372 120.555 29.3483C121.719 29.386 126.598 29.7749 125.126 27.2896C124.23 28.1418 121.403 27.9275 120.554 27.8997Z" fill="#D64238"/>
<path d="M96.1401 127.745C102.927 129.757 110.176 129.574 116.852 127.22C119.1 126.391 120.151 125.13 121.769 123.371C118.485 124.526 115.14 125.497 111.748 126.279C107.506 127.108 100.372 129.012 96.1401 127.745Z" fill="#D64238"/>
<path d="M149.891 116.881C148.52 116.39 147.122 115.977 145.705 115.644C145.349 115.567 145.066 116.11 145.441 116.27C146.819 116.832 148.228 117.315 149.661 117.717C150.199 117.874 150.414 117.06 149.891 116.881Z" fill="#FF7657"/>
<path d="M146.719 118.172C145.402 117.674 144.045 117.292 142.662 117.029C142.6 117.015 142.536 117.025 142.482 117.058C142.428 117.09 142.389 117.142 142.372 117.202C142.356 117.263 142.363 117.328 142.393 117.383C142.423 117.438 142.473 117.48 142.533 117.499C143.805 118.035 145.122 118.458 146.469 118.764C146.799 118.825 147.081 118.326 146.719 118.172Z" fill="#FF7657"/>
<path d="M187.482 78.2913C186.251 80.5232 185.385 82.937 184.914 85.4418C184.69 86.6972 184.766 87.9877 185.134 89.2086C185.503 90.4294 186.154 91.5462 187.034 92.4683C190.12 95.3149 195.426 94.0399 198.246 90.9305C201.066 87.821 202.04 83.5071 202.909 79.4025C204.28 72.9567 205.65 66.5113 207.022 60.0662C207.763 56.5817 211.072 49.8667 205.638 49.9589C201.161 50.0344 198.505 55.5488 196.923 58.7942C193.763 65.2876 190.616 71.7866 187.482 78.2913Z" fill="#398F7C"/>
<path d="M188.964 81.1892C188.164 80.8221 187.371 80.454 186.593 80.0561C182.887 78.1581 179.513 75.7164 175.873 73.7142C173.545 72.4958 171.257 71.1991 168.943 69.9549C167.217 69.0262 165.128 67.1094 163.219 66.7224C163.085 67.4408 163.116 68.1802 163.309 68.8848C163.503 69.5894 163.854 70.241 164.336 70.7903C160.901 71.2566 157.468 71.9204 153.973 72.2914C153.749 73.0265 153.736 73.8094 153.935 74.5514C154.134 75.2935 154.536 75.9651 155.097 76.4903C156.243 77.5257 157.709 78.1374 159.252 78.2236C163.221 78.5857 167.418 76.774 171.302 78.1422C173.899 79.058 176.01 81.9412 178.012 83.7976C180.909 86.4913 183.795 89.1206 186.87 91.605C189.074 90.9918 189.984 89.6831 190.471 87.4468C190.959 85.2104 191.045 82.1377 188.964 81.1892Z" fill="#A8652D"/>
<path d="M222.17 204.862C223.428 207.379 227.935 216.222 224.889 218.485C224.442 218.784 223.953 219.016 223.439 219.173L220.084 220.379C213.666 222.632 206.96 223.963 200.168 224.332C199.486 224.471 198.778 224.347 198.183 223.987C195.731 222.008 200.687 221.506 201.471 221.128C203.672 220.058 205.803 217.388 207.424 215.602C209.611 213.354 211.507 210.841 213.069 208.122C214.037 206.32 213.405 206.375 215.022 205.257C217.127 204.538 219.267 203.929 221.434 203.431C221.676 203.888 221.923 204.366 222.17 204.862Z" fill="#3D535C"/>
<path d="M194.322 123.567C194.336 122.911 194.344 122.251 194.359 121.594L215.676 102.932C216.173 103.703 216.638 104.498 217.066 105.313C218.817 108.665 219.785 112.371 219.897 116.151C219.931 119.586 219.478 123.008 218.554 126.316C217.575 130.138 216.48 133.92 215.676 137.782C214.813 141.976 214.089 146.251 212.849 150.358C211.869 153.604 210.435 156.668 210.6 160.135C210.615 161.619 210.861 163.092 211.33 164.5C211.93 165.838 212.719 167.084 213.671 168.198C215.869 170.952 217.744 173.948 219.26 177.128C220.693 180.478 221.532 184.052 221.741 187.689C222.061 191.599 222.173 195.621 223.077 199.456C223.389 200.765 224.042 201.937 224.383 203.234C224.624 204.305 224.657 205.413 224.482 206.497L215.22 208.657C214.794 207.682 214.49 206.658 214.314 205.609C214.116 204.319 214.204 202.998 214.033 201.698C213.567 198.801 212.593 196.009 211.156 193.45C209.563 190.374 207.976 187.289 206.586 184.107C205.447 181.137 204.11 178.246 202.585 175.454C201.008 172.85 198.715 170.89 196.753 168.608C195.533 167.32 194.749 165.68 194.513 163.922C194.423 162.386 194.45 160.845 194.594 159.313C194.657 158.01 194.638 156.7 194.594 155.396C194.47 151.644 194.339 147.895 194.281 144.144C194.155 136.986 195.26 129.004 194.111 122.032C193.019 115.384 191.797 109.699 197.067 104.163C199.543 101.673 202.743 100.031 206.21 99.4737C209.676 98.9164 213.23 99.4723 216.361 101.061C216.576 101.668 216.583 102.328 216.381 102.939C216.179 103.55 215.78 104.076 215.246 104.435" fill="#59889C"/>
<path d="M211.552 209.49C212.228 212.222 214.689 221.838 211.221 223.381C210.719 223.574 210.191 223.693 209.655 223.734L206.118 224.175C199.848 224.892 193.542 225.248 187.231 225.242C184.269 225.275 180.216 223.73 185.169 221.911C188.592 220.609 191.834 218.872 194.813 216.743C197.438 215.028 199.838 212.991 201.957 210.681C203.296 209.135 202.666 209.051 204.491 208.313C206.701 208.073 208.923 207.947 211.146 207.936C211.282 208.433 211.419 208.954 211.552 209.49Z" fill="#4A6570"/>
<path d="M207.279 103.298C211.467 100.504 219.774 99.1116 224.064 102.649C228.503 106.309 225.608 111.945 224.495 117.512C221.497 132.494 214.329 144.046 209.195 157.879C206.474 165.214 210.981 170.771 212.52 177.654C214.633 187.129 211.817 196.522 212.158 205.951C212.156 207.049 211.944 208.137 211.533 209.156L202.023 209.227C201.822 208.182 201.75 207.115 201.81 206.052C201.897 204.747 202.276 203.482 202.395 202.175C202.577 199.246 202.241 196.308 201.403 193.496C199.866 187.643 198.57 180.714 196.568 174.613C194.368 167.914 192.116 164.313 192.876 157.12C194.076 145.766 198.183 135.077 199.982 123.863C201.19 116.308 200.018 108.143 207.279 103.298Z" fill="#729CAD"/>
<path d="M197.093 112.441C200.005 115.814 203.891 118.201 208.216 119.274C212.566 120.32 217.152 119.644 221.015 117.389C222.476 116.601 223.647 115.369 224.36 113.87C224.697 113.116 224.791 112.276 224.628 111.466C224.465 110.656 224.054 109.918 223.451 109.353C222.371 108.662 221.105 108.322 219.825 108.377L193.959 106.902C194.174 109.073 195.087 111.115 196.561 112.723C198.035 114.33 199.991 115.416 202.135 115.817" fill="#59889C"/>
<path d="M201.087 42.0265C204.653 44.0406 209.034 42.4432 213.028 42.1108C213.756 42.0215 212.934 38.3128 212.808 37.9308C211.732 34.6626 210.625 31.3289 208.552 28.5826C206.901 26.3939 205.551 24.0693 203.399 22.2744C202.84 21.8081 195.854 18.0508 195.828 18.5399C195.759 22.5697 196.052 26.5975 196.703 30.5749C197.108 33.8371 196.874 38.161 199.42 40.7406C199.913 41.2453 200.474 41.6781 201.087 42.0265Z" fill="#4D3426"/>
<path d="M202.656 9.45452C206.685 7.66862 211.729 7.44737 215.168 9.0527C221.81 12.1512 222.453 18.5577 223.438 24.9442C223.903 27.9614 227.14 37.3999 224.798 39.8406C224.15 40.3964 223.36 40.7609 222.516 40.8933L215.487 42.6604C213.843 43.192 212.109 43.3851 210.388 43.2279C206.369 42.577 206.122 39.4269 204.733 36.4812C203.104 33.0244 200.422 29.9884 198.75 26.4801C196.995 22.7962 194.98 17.6419 197.369 13.7804C198.66 11.8427 200.501 10.3361 202.656 9.45452Z" fill="#4D3426"/>
<path d="M224.126 94.1954C224.126 95.0615 224.151 95.9247 224.195 96.7829C224.478 102.246 229.05 106.545 223.515 111.375C220.812 113.732 217.066 114.506 213.488 114.661C203.099 115.109 187.01 111.963 191.548 99.0252C193.712 92.3166 194.565 85.2544 194.061 78.2235C193.79 74.8273 193.083 71.4708 192.962 68.0656C192.732 61.5799 196.011 58.781 198.964 53.6465C201.482 49.273 204.358 45.8223 209.473 44.595C212.31 44.0936 215.19 43.8848 218.069 43.9719C219.302 43.8849 220.538 44.0999 221.67 44.5981C222.801 45.0963 223.795 45.8628 224.563 46.8313C227.186 49.8921 225.816 53.0879 225.468 56.9702C224.685 65.6646 224.65 74.4036 224.476 83.1248C224.399 86.7769 224.11 90.5144 224.126 94.1954Z" fill="#48B59D"/>
<path d="M213.888 72.102C214.423 73.8392 215.243 75.4754 216.315 76.9438L226.548 92.7192C226.817 84.3992 226.344 76.0716 225.134 67.8357C224.976 65.7968 224.351 63.8215 223.308 62.0623C217.803 54.121 212.742 67.4805 213.888 72.102Z" fill="#398F7C"/>
<path d="M219.209 95.0369C218.835 95.8306 218.459 96.6244 218.053 97.3963C216.343 100.595 214.312 103.611 211.992 106.399C207.768 111.552 203.281 116.588 200.707 122.647C200.478 123.186 203.313 122.179 203.462 122.089C204.475 121.476 205.234 119.819 205.898 118.892C205.317 122.805 203.776 126.294 202.434 130.004C202.077 130.996 208.736 128.368 209.518 127.381C211.602 124.746 212.792 120.699 213.667 117.505C213.908 116.293 214.3 115.118 214.836 114.005C216.529 110.991 219.358 108.501 221.711 106.014C224.432 103.143 227.089 100.282 229.604 97.2316C229.008 95.022 227.71 94.0983 225.48 93.5893C223.25 93.0803 220.176 92.9652 219.209 95.0369Z" fill="#A8652D"/>
<path d="M221.599 77.9308C221.985 79.6393 222.479 81.317 222.949 83.0008C223.283 83.9676 223.507 84.9691 223.617 85.9862C223.65 87.1192 222.765 88.3743 222.238 89.3228C221.51 90.6127 220.65 91.7884 219.814 93.0067C219.463 93.5098 218.43 94.7649 219.417 95.1171C220.388 95.4663 221.78 95.0953 222.753 95.0179C224.439 94.875 226.395 94.7202 227.873 95.7263C228.122 95.8996 228.358 96.091 228.579 96.2988C228.876 96.5746 229.416 97.3356 229.894 97.3395C230.272 97.3395 230.502 96.904 230.68 96.6311C231.119 95.9475 231.518 95.2421 231.948 94.5476C233.089 92.718 234.336 90.825 234.665 88.6511C235.068 85.9624 234.531 83.0305 234.261 80.3437C233.923 77.018 233.618 73.6833 233.004 70.3943C232.664 68.937 232.438 67.4555 232.328 65.9632C232.281 64.4383 232.414 62.9113 232.353 61.3913C232.161 58.7836 231.426 56.2446 230.196 53.9372C228.966 51.6298 227.267 49.6049 225.209 47.9921C224.222 47.3373 223.155 46.8115 222.034 46.4275C221.409 46.1521 220.721 46.0519 220.044 46.1378C218.998 46.3938 219.019 47.8245 218.881 48.6728C218.54 50.7652 217.294 52.2833 216.777 54.2378C215.738 57.7298 216.035 61.483 217.608 64.7687C219.769 69.1342 220.526 73.2101 221.599 77.9308Z" fill="#48B59D"/>
<path d="M198.096 35.1922C198.255 36.2415 198.81 37.19 199.647 37.8423C201.929 39.5041 205.708 38.0486 206.776 41.4269C207.005 42.1631 207.47 43.1761 207.693 44.1723C207.924 44.907 207.856 45.7029 207.504 46.3878C207.322 46.6725 206.982 46.9652 207.06 47.3373C207.139 47.7093 207.582 47.9157 207.899 48.0318C208.57 48.2301 209.275 48.2839 209.968 48.1896C214.036 47.8592 217.123 45.7518 220.689 44.2417C219.648 42.7128 217.549 41.9855 216.498 40.3405C214.759 37.616 214.656 33.6017 215.031 30.4863C215.334 27.9662 217.466 25.8301 216.562 23.3298C215.921 21.5578 214.164 22.0321 213.318 23.3457C212.872 24.1397 212.483 24.9646 212.155 25.8142C211.91 26.344 211.617 27.0167 210.937 26.7399C208.55 25.7894 209.689 21.2026 208.619 19.1667C207.539 17.3626 205.827 16.0238 203.816 15.4094C202.625 14.9589 200.572 14.2188 199.361 14.9976C198.594 15.4937 198.332 16.5851 198.024 17.3877C197.675 18.3055 197.201 19.1736 196.932 20.1172C195.817 24.1464 197.218 31.1957 198.096 35.1922Z" fill="#A8652D"/>
<path d="M209.229 8.79977C211.268 9.61354 213.089 10.8898 214.55 12.528C216.011 14.1661 217.071 16.1213 217.647 18.2393C218.738 22.0779 218.25 24.8768 217.406 28.6828C216.654 26.4504 215.903 24.2184 215.151 21.9867C214.18 22.2049 212.856 22.1474 212.552 23.1991C212.302 24.0662 212.713 24.9681 212.328 25.9266C210.966 25.0574 209.106 23.8004 208.592 22.1702C208.223 20.5623 207.975 18.9289 207.85 17.2838C208.022 18.4744 207.274 19.8634 207.264 21.0749C206.343 21.025 205.419 21.0669 204.506 21.1999C200.42 21.4757 201.649 18.4932 200.899 15.9216C200.848 16.3184 200.537 20.6304 200.461 20.6333L195.733 20.7812C195.388 19.9757 195.221 19.1053 195.243 18.2294C195.265 17.3534 195.475 16.4925 195.86 15.7053C197.062 12.7823 197.615 11.0728 200.394 9.56573C201.724 8.80669 203.202 8.34513 204.728 8.2129C206.253 8.08066 207.789 8.28088 209.229 8.79977Z" fill="#4D3426"/>
<path d="M200.467 38.0023H200.315C201.44 38.7742 202.808 38.7375 204.096 39.0808C204.712 39.1933 205.287 39.4705 205.758 39.8828C206.23 40.2952 206.581 40.8275 206.775 41.4233C207.057 42.3312 207.409 43.3035 207.727 44.1567C208.496 43.5029 208.557 42.1873 208.746 41.2646C208.921 40.4016 209.017 39.5246 209.034 38.6443C209.087 36.0884 206.882 37.1114 205.233 37.3882C203.661 37.7032 202.068 37.9085 200.467 38.0023Z" fill="#96431F"/>
<path d="M198.709 27.7966C200.954 27.4871 205.862 28.1677 207.77 28.4584C207.754 28.4152 207.75 28.3682 207.761 28.3233C207.772 28.2783 207.795 28.2376 207.829 28.2064C209.194 26.9612 210.601 25.7557 212.03 24.5869C212.384 24.2962 212.896 24.7943 212.539 25.0959C211.142 26.2773 209.713 27.4232 208.254 28.5338L208.552 28.5824C209.769 31.1085 209.106 34.3022 208.631 35.9175C210.021 35.298 211.291 34.4382 212.382 33.3775C213.646 31.9687 213.983 30.4487 214.621 28.7511C214.638 28.6976 214.673 28.6517 214.72 28.6217C214.767 28.5916 214.824 28.5793 214.879 28.5869C214.935 28.5945 214.986 28.6215 215.023 28.6632C215.061 28.7049 215.082 28.7585 215.084 28.8146C215.2 31.9756 211.612 36.0792 208.481 36.4076C208.367 36.7519 208.283 36.9573 208.283 36.9573C208.283 36.9573 204.81 41.0252 200.313 38.007C195.815 34.9888 196.518 29.3394 196.518 29.3394C196.518 29.3394 195.891 28.1865 198.709 27.7966Z" fill="white"/>
<path d="M163.931 76.0219C163.535 75.3172 163.042 74.6718 162.466 74.105L160.78 72.088C160.509 71.7635 160.054 72.2279 160.318 72.5493L160.479 72.7477C158.226 72.8721 155.989 73.2042 153.797 73.7399C153.739 73.7581 153.689 73.7963 153.656 73.8477C153.624 73.8991 153.61 73.9605 153.618 74.0208C153.627 74.0812 153.656 74.1367 153.701 74.1776C153.746 74.2184 153.804 74.2419 153.865 74.2439C156.233 74.1486 158.585 73.8115 160.884 73.2379L161.984 74.5833C162.432 75.2479 162.972 75.845 163.589 76.3563C163.823 76.512 164.017 76.2243 163.931 76.0219Z" fill="#96431F"/>
<path d="M161.81 74.6172C159.558 74.7767 157.322 75.1114 155.123 75.6183C154.72 75.6867 154.894 76.288 155.291 76.2285C157.512 76.0225 159.713 75.644 161.875 75.0964C161.931 75.0793 161.978 75.043 162.01 74.9941C162.041 74.9451 162.054 74.8866 162.046 74.829C162.038 74.7714 162.01 74.7185 161.967 74.6797C161.923 74.6409 161.868 74.6187 161.81 74.6172Z" fill="#96431F"/>
<path d="M162.968 75.9316C162.187 76.0251 161.423 76.2254 160.698 76.5269L158.193 77.3356C157.805 77.4616 157.967 78.0688 158.363 77.9507L160.883 77.1996C161.653 77.0376 162.397 76.7705 163.095 76.4059C163.143 76.378 163.181 76.3348 163.203 76.2831C163.224 76.2314 163.228 76.174 163.213 76.1199C163.199 76.0658 163.167 76.018 163.123 75.984C163.078 75.9499 163.024 75.9315 162.968 75.9316Z" fill="#96431F"/>
<path d="M207.671 122.503C206.946 122.574 206.043 124.914 204.328 129.605C204.229 129.881 204.658 130.053 204.797 129.803C206.16 127.561 207.273 125.176 208.116 122.691C208.195 122.415 207.937 122.477 207.671 122.503Z" fill="#96431F"/>
<path d="M209.622 123.077C208.937 125.348 208.394 127.311 206.72 129.098C206.664 129.154 206.633 129.23 206.633 129.309C206.633 129.388 206.664 129.464 206.72 129.52C206.777 129.576 206.852 129.608 206.932 129.607C207.011 129.607 207.087 129.576 207.143 129.52C208.765 127.915 210.244 125.506 210.072 123.136C210.071 123.081 210.05 123.028 210.014 122.987C209.977 122.946 209.927 122.92 209.872 122.913C209.818 122.905 209.763 122.918 209.717 122.948C209.671 122.978 209.637 123.024 209.622 123.077Z" fill="#96431F"/>
</svg>
