<svg width="20" height="20" viewBox="0 0 20 20" fill="none" xmlns="http://www.w3.org/2000/svg">
<path opacity="0.5" d="M3.24223 10.0904C3.22274 7.84383 4.02304 5.66723 5.4932 3.96839C6.96336 2.26955 9.0025 1.16503 11.2286 0.861777C10.8214 0.80844 10.4112 0.781703 10.0006 0.781738C8.78328 0.784884 7.57858 1.02846 6.45566 1.49849C5.33275 1.96852 4.31374 2.65573 3.45715 3.52067C2.60056 4.38561 1.92327 5.41124 1.46417 6.53867C1.00506 7.66609 0.773182 8.8731 0.781851 10.0904V19.2181L0.934254 19.0657C1.5625 18.4433 2.3658 18.0275 3.23675 17.8739L3.24223 10.0904Z" fill="#8C97AB"/>
<path d="M0.780893 19.9999C0.57375 19.9996 0.37519 19.9171 0.22882 19.7706C0.0824504 19.624 0.000238014 19.4253 0.000238218 19.2182V10.0937C-0.0088625 8.77359 0.242879 7.46466 0.74101 6.24208C1.23914 5.0195 1.97385 3.90735 2.90296 2.96948C3.83206 2.03161 4.93727 1.2865 6.15512 0.776914C7.37297 0.267331 8.67948 0.00331535 9.99964 2.57291e-05C11.322 -0.00297712 12.6317 0.256895 13.8527 0.764536C15.0737 1.27218 16.1816 2.01746 17.112 2.95706C18.0424 3.89666 18.7768 5.01183 19.2724 6.23775C19.768 7.46367 20.015 8.77588 19.999 10.0981C19.9707 12.7386 18.9001 15.261 17.0203 17.1156C15.1406 18.9703 12.6041 20.007 9.96346 19.9999H9.95359C8.40136 20.0059 6.86955 19.6461 5.48237 18.9496C4.83002 18.6258 4.0922 18.5161 3.37389 18.636C2.65557 18.7559 1.99337 19.0993 1.48151 19.6173L1.32911 19.7697C1.18372 19.9153 0.986693 19.9977 0.780893 19.9988V19.9999ZM3.96053 17.0253C4.73529 17.0252 5.49935 17.2062 6.19175 17.5538C7.36079 18.1399 8.65135 18.4426 9.95907 18.4375H9.96675C12.1918 18.4352 14.3267 17.5584 15.9112 15.9963C17.4957 14.4342 18.4027 12.3119 18.4366 10.0871C18.4561 8.40747 17.9732 6.76031 17.0498 5.35708C16.1264 3.95385 14.8048 2.85859 13.2545 2.21189C11.7042 1.56518 9.99597 1.39654 8.34914 1.72762C6.70231 2.05869 5.19199 2.87437 4.01206 4.06996C3.22362 4.85925 2.6008 5.79809 2.18018 6.83139C1.75956 7.86468 1.5496 8.97159 1.56264 10.0871C1.56264 10.0871 1.56264 10.0871 1.56264 10.0948V17.636C2.29777 17.2383 3.12035 17.03 3.95614 17.0297L3.96053 17.0253Z" fill="#8C97AB"/>
<path d="M7.6555 10.0006C7.6555 10.1938 7.59821 10.3827 7.49086 10.5433C7.38352 10.704 7.23094 10.8292 7.05243 10.9031C6.87393 10.9771 6.6775 10.9964 6.48799 10.9587C6.29849 10.921 6.12442 10.828 5.9878 10.6914C5.85117 10.5548 5.75813 10.3807 5.72043 10.1912C5.68274 10.0017 5.70209 9.80526 5.77603 9.62675C5.84997 9.44824 5.97519 9.29567 6.13584 9.18832C6.29649 9.08098 6.48537 9.02368 6.67858 9.02368C6.93768 9.02368 7.18616 9.12661 7.36937 9.30982C7.55258 9.49302 7.6555 9.74151 7.6555 10.0006ZM10.038 9.02368C9.84481 9.02368 9.65594 9.08098 9.49528 9.18832C9.33463 9.29567 9.20943 9.44824 9.13549 9.62675C9.06155 9.80526 9.0422 10.0017 9.07989 10.1912C9.11759 10.3807 9.21063 10.5548 9.34726 10.6914C9.48388 10.828 9.65795 10.921 9.84745 10.9587C10.037 10.9964 10.2334 10.9771 10.4119 10.9031C10.5904 10.8292 10.743 10.704 10.8503 10.5433C10.9577 10.3827 11.0149 10.1938 11.0149 10.0006C11.0149 9.7417 10.9122 9.49338 10.7292 9.3102C10.5462 9.12703 10.298 9.02397 10.0391 9.02368H10.038ZM13.3975 9.02368C13.2043 9.02368 13.0154 9.08098 12.8547 9.18832C12.6941 9.29567 12.5689 9.44824 12.4949 9.62675C12.421 9.80526 12.4016 10.0017 12.4393 10.1912C12.477 10.3807 12.5701 10.5548 12.7067 10.6914C12.8433 10.828 13.0174 10.921 13.2069 10.9587C13.3964 10.9964 13.5928 10.9771 13.7713 10.9031C13.9498 10.8292 14.1024 10.704 14.2098 10.5433C14.3171 10.3827 14.3744 10.1938 14.3744 10.0006C14.3744 9.74151 14.2715 9.49302 14.0883 9.30982C13.905 9.12661 13.6566 9.02368 13.3975 9.02368Z" fill="#8C97AB"/>
</svg>
