<svg width="24" height="24" viewBox="0 0 24 24" fill="none" xmlns="http://www.w3.org/2000/svg">
<path opacity="0.5" d="M4.4383 17.8273V7.81307C4.4383 6.92785 4.80043 6.07888 5.44503 5.45294C6.08963 4.827 6.9639 4.47534 7.8755 4.47534H5.29706C4.84568 4.47534 4.39872 4.56168 3.9817 4.72941C3.56468 4.89715 3.18577 5.143 2.86659 5.45294C2.54742 5.76288 2.29424 6.13082 2.1215 6.53577C1.94877 6.94072 1.85986 7.37475 1.85986 7.81307V17.8273C1.85986 18.2656 1.94877 18.6996 2.1215 19.1046C2.29424 19.5095 2.54742 19.8775 2.86659 20.1874C3.18577 20.4973 3.56468 20.7432 3.9817 20.9109C4.39872 21.0787 4.84568 21.165 5.29706 21.165H7.8755C6.9639 21.165 6.08963 20.8133 5.44503 20.1874C4.80043 19.5615 4.4383 18.7125 4.4383 17.8273Z" fill="#8C97AB"/>
<path d="M18.703 3.64031H17.8431V2.80535C17.8352 2.58917 17.7412 2.3844 17.5809 2.23418C17.4207 2.08395 17.2066 2 16.9838 2C16.7611 2 16.547 2.08395 16.3867 2.23418C16.2264 2.3844 16.1324 2.58917 16.1245 2.80535V3.64031H7.87547V2.80535C7.86757 2.58917 7.77358 2.3844 7.6133 2.23418C7.45301 2.08395 7.23894 2 7.01617 2C6.79341 2 6.57934 2.08395 6.41905 2.23418C6.25877 2.3844 6.16477 2.58917 6.15688 2.80535V3.64031H5.29704C4.15774 3.64143 3.06544 4.08141 2.25984 4.8637C1.45424 5.64599 1.00115 6.70669 1 7.81302V17.8304C1.002 18.9362 1.45547 19.9961 2.26098 20.7777C3.06649 21.5593 4.1583 21.9989 5.29704 22H18.7084C19.8462 21.9975 20.9366 21.5573 21.7409 20.7759C22.5453 19.9944 22.998 18.9353 23 17.8304V7.81302C22.9989 6.70669 22.5458 5.64599 21.7402 4.8637C20.9346 4.08141 19.8423 3.64143 18.703 3.64031ZM21.2814 17.8304C21.2808 18.4943 21.009 19.1309 20.5256 19.6003C20.0421 20.0697 19.3866 20.3337 18.703 20.3343H5.29704C4.61337 20.3337 3.95786 20.0697 3.47444 19.6003C2.99101 19.1309 2.71917 18.4943 2.7186 17.8304V7.81302C2.71917 7.14913 2.99101 6.51259 3.47444 6.04315C3.95786 5.57372 4.61337 5.30974 5.29704 5.30918H18.7084C19.392 5.30974 20.0475 5.57372 20.531 6.04315C21.0144 6.51259 21.2862 7.14913 21.2868 7.81302L21.2814 17.8304Z" fill="#8C97AB"/>
<path d="M12.8589 10.3169H11.1403C11.0249 10.3209 10.9099 10.3023 10.8021 10.2621C10.6942 10.222 10.5958 10.1612 10.5127 10.0833C10.4296 10.0054 10.3635 9.91209 10.3184 9.80887C10.2733 9.70565 10.25 9.59465 10.25 9.48251C10.25 9.37038 10.2733 9.25939 10.3184 9.15617C10.3635 9.05296 10.4296 8.95963 10.5127 8.88176C10.5958 8.80388 10.6942 8.74306 10.8021 8.70291C10.9099 8.66277 11.0249 8.64413 11.1403 8.64811H12.8589C12.9743 8.64413 13.0894 8.66277 13.1972 8.70291C13.305 8.74306 13.4034 8.80388 13.4865 8.88176C13.5696 8.95963 13.6357 9.05296 13.6809 9.15617C13.726 9.25939 13.7493 9.37038 13.7493 9.48251C13.7493 9.59465 13.726 9.70565 13.6809 9.80887C13.6357 9.91209 13.5696 10.0054 13.4865 10.0833C13.4034 10.1612 13.305 10.222 13.1972 10.2621C13.0894 10.3023 12.9743 10.3209 12.8589 10.3169Z" fill="#8C97AB"/>
<path d="M18.7032 10.3169H16.9846C16.762 10.3092 16.5511 10.2179 16.3964 10.0622C16.2417 9.9066 16.1553 9.69872 16.1553 9.48239C16.1553 9.26607 16.2417 9.05819 16.3964 8.90254C16.5511 8.74689 16.762 8.65562 16.9846 8.64795H18.7032C18.9258 8.65562 19.1367 8.74689 19.2914 8.90254C19.4461 9.05819 19.5326 9.26607 19.5326 9.48239C19.5326 9.69872 19.4461 9.9066 19.2914 10.0622C19.1367 10.2179 18.9258 10.3092 18.7032 10.3169Z" fill="#8C97AB"/>
<path d="M7.01568 13.6546H5.29707C5.18166 13.6586 5.06661 13.6399 4.95878 13.5998C4.85095 13.5596 4.75255 13.4988 4.66946 13.4209C4.58636 13.3431 4.52027 13.2497 4.47514 13.1465C4.43 13.0433 4.40674 12.9323 4.40674 12.8202C4.40674 12.708 4.43 12.597 4.47514 12.4938C4.52027 12.3906 4.58636 12.2973 4.66946 12.2194C4.75255 12.1415 4.85095 12.0807 4.95878 12.0406C5.06661 12.0004 5.18166 11.9818 5.29707 11.9858H7.01568C7.23831 11.9934 7.44918 12.0847 7.60388 12.2403C7.75858 12.396 7.84503 12.6039 7.84503 12.8202C7.84503 13.0365 7.75858 13.2444 7.60388 13.4C7.44918 13.5556 7.23831 13.6469 7.01568 13.6546Z" fill="#8C97AB"/>
<path d="M12.8589 13.6546H11.1403C11.0249 13.6586 10.9099 13.6399 10.8021 13.5998C10.6942 13.5596 10.5958 13.4988 10.5127 13.4209C10.4296 13.3431 10.3635 13.2497 10.3184 13.1465C10.2733 13.0433 10.25 12.9323 10.25 12.8202C10.25 12.708 10.2733 12.597 10.3184 12.4938C10.3635 12.3906 10.4296 12.2973 10.5127 12.2194C10.5958 12.1415 10.6942 12.0807 10.8021 12.0406C10.9099 12.0004 11.0249 11.9818 11.1403 11.9858H12.8589C13.0816 11.9934 13.2924 12.0847 13.4471 12.2403C13.6018 12.396 13.6883 12.6039 13.6883 12.8202C13.6883 13.0365 13.6018 13.2444 13.4471 13.4C13.2924 13.5556 13.0816 13.6469 12.8589 13.6546Z" fill="#8C97AB"/>
<path d="M18.7032 13.6547H16.9846C16.762 13.647 16.5511 13.5557 16.3964 13.4001C16.2417 13.2444 16.1553 13.0366 16.1553 12.8202C16.1553 12.6039 16.2417 12.3961 16.3964 12.2404C16.5511 12.0848 16.762 11.9935 16.9846 11.9858H18.7032C18.9258 11.9935 19.1367 12.0848 19.2914 12.2404C19.4461 12.3961 19.5326 12.6039 19.5326 12.8202C19.5326 13.0366 19.4461 13.2444 19.2914 13.4001C19.1367 13.5557 18.9258 13.647 18.7032 13.6547Z" fill="#8C97AB"/>
<path d="M7.01572 16.9935H5.29712C5.07449 16.9859 4.86363 16.8946 4.70893 16.7389C4.55423 16.5833 4.46777 16.3754 4.46777 16.1591C4.46777 15.9428 4.55423 15.7349 4.70893 15.5793C4.86363 15.4236 5.07449 15.3324 5.29712 15.3247H7.01572C7.23834 15.3324 7.44921 15.4236 7.60391 15.5793C7.75861 15.7349 7.84506 15.9428 7.84506 16.1591C7.84506 16.3754 7.75861 16.5833 7.60391 16.7389C7.44921 16.8946 7.23834 16.9859 7.01572 16.9935Z" fill="#8C97AB"/>
<path d="M12.8589 16.9934H11.1403C11.0249 16.9974 10.9099 16.9788 10.8021 16.9386C10.6942 16.8985 10.5958 16.8377 10.5127 16.7598C10.4296 16.6819 10.3635 16.5886 10.3184 16.4854C10.2733 16.3822 10.25 16.2712 10.25 16.159C10.25 16.0469 10.2733 15.9359 10.3184 15.8327C10.3635 15.7295 10.4296 15.6361 10.5127 15.5583C10.5958 15.4804 10.6942 15.4196 10.8021 15.3794C10.9099 15.3393 11.0249 15.3206 11.1403 15.3246H12.8589C13.0816 15.3323 13.2924 15.4236 13.4471 15.5792C13.6018 15.7348 13.6883 15.9427 13.6883 16.159C13.6883 16.3754 13.6018 16.5832 13.4471 16.7389C13.2924 16.8945 13.0816 16.9858 12.8589 16.9934Z" fill="#8C97AB"/>
</svg>
