<svg width="26" height="26" viewBox="0 0 26 26" fill="none" xmlns="http://www.w3.org/2000/svg">
<path d="M13 0C9.55219 0 6.24559 1.36964 3.80761 3.80761C1.36964 6.24559 0 9.55219 0 13C0 16.4478 1.36964 19.7544 3.80761 22.1924C6.24559 24.6304 9.55219 26 13 26C14.2968 26.0036 15.5866 25.8097 16.825 25.425C16.984 25.3839 17.1275 25.297 17.2375 25.175L25.175 17.2375C25.2943 17.1253 25.3808 16.9827 25.425 16.825C25.8097 15.5866 26.0036 14.2968 26 13C25.9934 9.55422 24.6216 6.25145 22.1851 3.81491C19.7485 1.37837 16.4458 0.00660747 13 0ZM23.5875 16L16 23.5875C13.6601 24.2483 11.1672 24.1144 8.91159 23.2067C6.656 22.299 4.7652 20.6687 3.53536 18.5713C2.30553 16.4739 1.80612 14.0278 2.11536 11.6161C2.42461 9.2045 3.52504 6.96354 5.24429 5.24429C6.96354 3.52504 9.2045 2.42461 11.6161 2.11536C14.0278 1.80612 16.4739 2.30553 18.5713 3.53536C20.6687 4.7652 22.299 6.656 23.2067 8.91159C24.1144 11.1672 24.2483 13.6601 23.5875 16ZM7 10.5C7 10.2033 7.08797 9.91332 7.2528 9.66665C7.41762 9.41997 7.65189 9.22771 7.92598 9.11418C8.20006 9.00065 8.50167 8.97095 8.79264 9.02882C9.08361 9.0867 9.35088 9.22956 9.56066 9.43934C9.77044 9.64912 9.9133 9.91639 9.97118 10.2074C10.0291 10.4983 9.99935 10.7999 9.88582 11.074C9.77229 11.3481 9.58003 11.5824 9.33336 11.7472C9.08668 11.912 8.79667 12 8.5 12C8.10218 12 7.72064 11.842 7.43934 11.5607C7.15804 11.2794 7 10.8978 7 10.5ZM16 10.5C16 10.2033 16.088 9.91332 16.2528 9.66665C16.4176 9.41997 16.6519 9.22771 16.926 9.11418C17.2001 9.00065 17.5017 8.97095 17.7926 9.02882C18.0836 9.0867 18.3509 9.22956 18.5607 9.43934C18.7704 9.64912 18.9133 9.91639 18.9712 10.2074C19.0291 10.4983 18.9994 10.7999 18.8858 11.074C18.7723 11.3481 18.58 11.5824 18.3334 11.7472C18.0867 11.912 17.7967 12 17.5 12C17.1022 12 16.7206 11.842 16.4393 11.5607C16.158 11.2794 16 10.8978 16 10.5ZM19.0625 16.5C18.4482 17.5643 17.5645 18.4481 16.5003 19.0626C15.4361 19.6771 14.2289 20.0006 13 20.0006C11.7711 20.0006 10.5639 19.6771 9.49972 19.0626C8.43552 18.4481 7.55184 17.5643 6.9375 16.5C6.85924 16.3865 6.8053 16.258 6.77909 16.1226C6.75287 15.9872 6.75494 15.8478 6.78516 15.7133C6.81539 15.5788 6.87311 15.4519 6.95471 15.3407C7.03631 15.2296 7.14002 15.1365 7.25932 15.0673C7.37862 14.9982 7.51094 14.9544 7.64796 14.9389C7.78498 14.9233 7.92373 14.9362 8.05551 14.9769C8.18729 15.0175 8.30924 15.0849 8.4137 15.175C8.51816 15.265 8.60286 15.3757 8.6625 15.5C9.1029 16.2604 9.73545 16.8916 10.4967 17.3305C11.258 17.7693 12.1213 18.0003 13 18.0003C13.8787 18.0003 14.742 17.7693 15.5033 17.3305C16.2646 16.8916 16.8971 16.2604 17.3375 15.5C17.4804 15.2928 17.6961 15.147 17.9417 15.0919C18.1873 15.0367 18.4446 15.0762 18.6624 15.2024C18.8801 15.3286 19.0423 15.5323 19.1165 15.7729C19.1906 16.0134 19.1714 16.2731 19.0625 16.5Z" fill="#AFB6C4"/>
</svg>
