<svg width="28" height="28" viewBox="0 0 28 28" fill="none" xmlns="http://www.w3.org/2000/svg">
<path d="M14.9509 14.2298L6.16359 15.6952C6.06257 15.712 5.96776 15.7552 5.88871 15.8203C5.80966 15.8854 5.74914 15.9702 5.71326 16.0662L2.68343 24.1827C2.39409 24.9293 3.17459 25.641 3.89093 25.2828L24.8909 14.7828C25.0364 14.7102 25.1587 14.5985 25.2442 14.4602C25.3297 14.3219 25.375 14.1626 25.375 14C25.375 13.8374 25.3297 13.6781 25.2442 13.5398C25.1587 13.4015 25.0364 13.2898 24.8909 13.2172L3.89093 2.71716C3.17459 2.359 2.39409 3.07183 2.68343 3.81733L5.71443 11.9338C5.75014 12.03 5.81058 12.115 5.88964 12.1804C5.96871 12.2457 6.0636 12.289 6.16476 12.306L14.9521 13.7702C15.0062 13.7796 15.0552 13.8079 15.0905 13.8499C15.1258 13.8919 15.1452 13.9451 15.1452 14C15.1452 14.0549 15.1258 14.108 15.0905 14.1501C15.0552 14.1921 15.0062 14.2204 14.9521 14.2298H14.9509Z" fill="#0062FF"/>
</svg>
