<svg width="32" height="32" viewBox="0 0 32 32" fill="none" xmlns="http://www.w3.org/2000/svg">
<path d="M21.3332 16V8.00001C21.3332 5.04401 18.9532 2.63867 16.0278 2.63867C15.934 2.63924 15.8405 2.65042 15.7492 2.67201C14.3802 2.73838 13.0891 3.32848 12.143 4.32021C11.1969 5.31194 10.6683 6.6294 10.6665 8.00001V16C10.6665 18.9413 13.0585 21.3333 15.9998 21.3333C18.9412 21.3333 21.3332 18.9413 21.3332 16ZM13.3332 16V8.00001C13.3332 6.52934 14.5292 5.33334 15.9998 5.33334C16.0727 5.33336 16.1455 5.32667 16.2172 5.31334C17.5838 5.41334 18.6665 6.58001 18.6665 8.00001V16C18.6665 17.4707 17.4705 18.6667 15.9998 18.6667C14.5292 18.6667 13.3332 17.4707 13.3332 16Z" fill="#AFB6C4"/>
<path d="M8.00016 16H5.3335C5.3335 21.4293 9.41483 25.9147 14.6668 26.5747V29.3333H17.3335V26.5747C22.5855 25.9147 26.6668 21.4307 26.6668 16H24.0002C24.0002 20.412 20.4122 24 16.0002 24C11.5882 24 8.00016 20.412 8.00016 16Z" fill="#AFB6C4"/>
</svg>
